<svg width="148" height="172" viewBox="0 0 148 172" fill="none" xmlns="http://www.w3.org/2000/svg">
<g clip-path="url(#clip0_445_15057)">
<path d="M116.372 17.6329L90.5532 2.73669V32.527L116.372 17.6329Z" fill="url(#paint0_linear_445_15057)"/>
<path d="M68.0452 29.0676C67.1242 29.7528 66.655 30.0507 66.3372 31.0909C66.1957 31.5526 66.2354 32.3446 66.4514 32.7765C67.1987 34.2785 68.5938 35.5495 69.7532 36.7411C70.6121 37.6249 71.4909 38.4938 72.4095 39.318L81.5651 47.5327L84.0674 49.7396C84.0674 49.7396 85.3335 54.2107 85.2169 56.4747C85.1002 58.7388 82.208 62.6066 81.7885 63.5127C81.3689 64.4188 77.5657 66.3428 75.9272 67.095C74.2912 67.8472 67.4345 69.0636 66.2627 68.9743C65.091 68.8849 65.4013 68.8626 65.4013 68.8626C67.0596 68.5001 68.9464 67.6412 69.2989 65.7817C69.3932 65.2852 69.3113 64.7689 69.1499 64.2897C68.5045 62.3832 66.6699 60.8688 65.2548 59.5183C64.0111 58.3292 62.7376 57.1723 61.4442 56.0378C61.4442 56.0378 52.2017 47.9224 52.1992 47.9224C51.0895 46.9468 50.7221 45.5069 50.4863 44.1117C50.0618 41.5895 50.1511 38.9208 51.236 36.5698C52.2216 34.4373 54.0288 32.6847 56.0074 31.4633C56.1291 31.3888 56.2507 31.3168 56.3723 31.2448C58.4974 30.016 60.8781 29.2836 63.2862 28.8566C64.4877 28.6431 65.6893 28.5587 66.8983 28.4246C67.4693 28.3601 68.5467 28.4445 69.2666 28.447" fill="url(#paint1_linear_445_15057)"/>
<path fill-rule="evenodd" clip-rule="evenodd" d="M44.6274 74.7606V69.8066C46.3231 69.7284 48.0257 69.6656 49.7317 69.6026C56.1503 69.3656 62.6151 69.1269 68.9264 68.0639C73.2113 67.3415 77.9479 66.2517 81.1827 63.1485C82.9502 61.4529 84.1096 59.174 84.544 56.7734C84.7575 55.5942 84.7997 54.3852 84.6508 53.196C84.6454 53.1532 84.637 53.0812 84.626 52.9869C84.5341 52.2015 84.2602 49.86 84.0674 49.7404C86.4729 51.2299 88.1213 54.6731 89.0275 57.2401C90.939 62.6569 91.2394 69.0644 88.7072 74.3348C86.5251 78.8778 82.3743 82.2491 77.8089 84.3865C67.4766 89.2225 55.774 89.0785 44.6274 88.8526V85.1409C44.7903 85.1562 44.9553 85.1641 45.1221 85.1641C48.0014 85.1641 50.3354 82.83 50.3354 79.9508C50.3354 77.0715 48.0014 74.7375 45.1221 74.7375C44.9553 74.7375 44.7903 74.7453 44.6274 74.7606Z" fill="url(#paint2_linear_445_15057)"/>
<path d="M90.5331 7.90272C82.6237 7.64205 74.7119 7.41862 66.9491 9.27059C59.5536 11.0357 51.5226 14.6949 47.5133 21.4623C47.0069 22.3163 46.5675 23.2125 46.21 24.1385C44.8943 27.542 44.2786 31.941 44.9191 35.5581C44.929 35.6177 44.9414 35.6797 44.9538 35.7393C45.6961 39.5128 47.5828 43.1124 48.8986 44.4853C50.2069 45.8506 51.7609 47.4544 51.7734 47.4668C51.3042 46.9876 51.2098 46.0592 51.0782 45.4311C50.9069 44.5994 50.8225 43.7479 50.825 42.8989C50.83 41.2257 51.1676 39.5525 51.8305 38.0133C53.675 33.7458 57.7513 31.3005 62.0436 29.9972C62.6568 29.811 63.2749 29.6447 63.898 29.4883C68.3318 28.3861 72.8897 27.8722 77.4477 27.6587C79.7366 27.5519 82.0304 27.5197 84.3218 27.5271C85.4687 27.5296 86.6156 27.5445 87.7601 27.5619C88.3062 27.5718 90.5331 27.5941 90.5331 27.5941C90.5331 27.5941 90.5331 26.2511 90.5331 25.9358V15.9933C90.5331 13.3717 90.5331 10.7477 90.5331 8.12614" fill="url(#paint3_linear_445_15057)"/>
</g>
<path d="M45.4858 112.565C45.4176 111.878 45.125 111.344 44.608 110.963C44.0909 110.582 43.3892 110.392 42.5028 110.392C41.9006 110.392 41.392 110.477 40.9773 110.648C40.5625 110.812 40.2443 111.043 40.0227 111.338C39.8068 111.634 39.6989 111.969 39.6989 112.344C39.6875 112.656 39.7528 112.929 39.8949 113.162C40.0426 113.395 40.2443 113.597 40.5 113.767C40.7557 113.932 41.0511 114.077 41.3864 114.202C41.7216 114.321 42.0795 114.423 42.4602 114.509L44.0284 114.884C44.7898 115.054 45.4886 115.281 46.125 115.565C46.7614 115.849 47.3125 116.199 47.7784 116.614C48.2443 117.028 48.6051 117.517 48.8608 118.08C49.1222 118.642 49.2557 119.287 49.2614 120.014C49.2557 121.082 48.983 122.009 48.4432 122.793C47.9091 123.571 47.1364 124.176 46.125 124.608C45.1193 125.034 43.9063 125.247 42.4858 125.247C41.0767 125.247 39.8494 125.031 38.804 124.599C37.7642 124.168 36.9517 123.528 36.3665 122.682C35.7869 121.83 35.483 120.776 35.4545 119.52H39.0256C39.0653 120.105 39.233 120.594 39.5284 120.986C39.8295 121.372 40.2301 121.665 40.7301 121.864C41.2358 122.057 41.8068 122.153 42.4432 122.153C43.0682 122.153 43.6108 122.062 44.071 121.881C44.5369 121.699 44.8977 121.446 45.1534 121.122C45.4091 120.798 45.5369 120.426 45.5369 120.006C45.5369 119.614 45.4205 119.284 45.1875 119.017C44.9602 118.75 44.625 118.523 44.1818 118.335C43.7443 118.148 43.2074 117.977 42.571 117.824L40.6705 117.347C39.1989 116.989 38.0369 116.429 37.1847 115.668C36.3324 114.906 35.9091 113.881 35.9148 112.591C35.9091 111.534 36.1903 110.611 36.7585 109.821C37.3324 109.031 38.1193 108.415 39.1193 107.972C40.1193 107.528 41.2557 107.307 42.5284 107.307C43.8239 107.307 44.9545 107.528 45.9205 107.972C46.892 108.415 47.6477 109.031 48.1875 109.821C48.7273 110.611 49.0057 111.526 49.0227 112.565H45.4858ZM55.4084 125.247C54.5732 125.247 53.8288 125.102 53.1754 124.812C52.522 124.517 52.005 124.082 51.6243 123.509C51.2493 122.929 51.0618 122.207 51.0618 121.344C51.0618 120.616 51.1953 120.006 51.4624 119.511C51.7294 119.017 52.093 118.619 52.5533 118.318C53.0135 118.017 53.5362 117.79 54.1214 117.636C54.7124 117.483 55.3317 117.375 55.9794 117.312C56.7408 117.233 57.3544 117.159 57.8203 117.091C58.2862 117.017 58.6243 116.909 58.8345 116.767C59.0447 116.625 59.1499 116.415 59.1499 116.136V116.085C59.1499 115.545 58.9794 115.128 58.6385 114.832C58.3033 114.537 57.826 114.389 57.2067 114.389C56.5533 114.389 56.0334 114.534 55.647 114.824C55.2607 115.108 55.005 115.466 54.88 115.898L51.522 115.625C51.6925 114.83 52.0277 114.142 52.5277 113.562C53.0277 112.977 53.6726 112.528 54.4624 112.216C55.2578 111.898 56.1783 111.739 57.2237 111.739C57.951 111.739 58.647 111.824 59.3118 111.994C59.9822 112.165 60.576 112.429 61.093 112.787C61.6158 113.145 62.0277 113.605 62.3288 114.168C62.63 114.724 62.7805 115.392 62.7805 116.17V125H59.3374V123.185H59.2351C59.0249 123.594 58.7436 123.955 58.3913 124.267C58.0391 124.574 57.6158 124.815 57.1214 124.991C56.6271 125.162 56.0561 125.247 55.4084 125.247ZM56.4482 122.741C56.9822 122.741 57.4538 122.636 57.8629 122.426C58.272 122.21 58.593 121.92 58.826 121.557C59.0589 121.193 59.1754 120.781 59.1754 120.321V118.932C59.0618 119.006 58.9055 119.074 58.7067 119.136C58.5135 119.193 58.2947 119.247 58.0504 119.298C57.8061 119.344 57.5618 119.386 57.3175 119.426C57.0732 119.46 56.8516 119.491 56.6527 119.52C56.2266 119.582 55.8544 119.682 55.5362 119.818C55.218 119.955 54.9709 120.139 54.7947 120.372C54.6186 120.599 54.5305 120.884 54.5305 121.224C54.5305 121.719 54.7095 122.097 55.0675 122.358C55.4311 122.614 55.8913 122.741 56.4482 122.741ZM72.6371 111.909V114.636H64.5575V111.909H72.6371ZM66.407 125V110.963C66.407 110.014 66.5916 109.227 66.9609 108.602C67.3359 107.977 67.8473 107.509 68.495 107.196C69.1428 106.884 69.8786 106.727 70.7024 106.727C71.2592 106.727 71.7678 106.77 72.228 106.855C72.6939 106.94 73.0405 107.017 73.2678 107.085L72.62 109.812C72.478 109.767 72.3018 109.724 72.0916 109.685C71.8871 109.645 71.6768 109.625 71.4609 109.625C70.9268 109.625 70.5547 109.75 70.3445 110C70.1342 110.244 70.0291 110.588 70.0291 111.031V125H66.407ZM80.3523 125.256C79.0057 125.256 77.8466 124.983 76.875 124.438C75.9091 123.886 75.1648 123.108 74.642 122.102C74.1193 121.091 73.858 119.895 73.858 118.514C73.858 117.168 74.1193 115.986 74.642 114.969C75.1648 113.952 75.9006 113.159 76.8494 112.591C77.804 112.023 78.9233 111.739 80.2074 111.739C81.071 111.739 81.875 111.878 82.6193 112.156C83.3693 112.429 84.0227 112.841 84.5795 113.392C85.142 113.943 85.5795 114.636 85.892 115.472C86.2045 116.301 86.3608 117.273 86.3608 118.386V119.384H75.3068V117.134H82.9432C82.9432 116.611 82.8295 116.148 82.6023 115.744C82.375 115.341 82.0597 115.026 81.6562 114.798C81.2585 114.565 80.7955 114.449 80.267 114.449C79.7159 114.449 79.2273 114.577 78.8011 114.832C78.3807 115.082 78.0511 115.42 77.8125 115.847C77.5739 116.267 77.4517 116.736 77.446 117.253V119.392C77.446 120.04 77.5653 120.599 77.804 121.071C78.0483 121.543 78.392 121.906 78.8352 122.162C79.2784 122.418 79.804 122.545 80.4119 122.545C80.8153 122.545 81.1847 122.489 81.5199 122.375C81.8551 122.261 82.142 122.091 82.3807 121.864C82.6193 121.636 82.8011 121.358 82.9261 121.028L86.2841 121.25C86.1136 122.057 85.7642 122.761 85.2358 123.364C84.7131 123.96 84.0369 124.426 83.2074 124.761C82.3835 125.091 81.4318 125.256 80.3523 125.256ZM95.6932 111.909V114.636H87.8097V111.909H95.6932ZM89.5994 108.773H93.2301V120.977C93.2301 121.312 93.2813 121.574 93.3835 121.761C93.4858 121.943 93.6278 122.071 93.8097 122.145C93.9972 122.219 94.2131 122.256 94.4574 122.256C94.6278 122.256 94.7983 122.241 94.9688 122.213C95.1392 122.179 95.2699 122.153 95.3608 122.136L95.9318 124.838C95.75 124.895 95.4943 124.96 95.1648 125.034C94.8352 125.114 94.4347 125.162 93.9631 125.179C93.0881 125.213 92.321 125.097 91.6619 124.83C91.0085 124.562 90.5 124.148 90.1364 123.585C89.7727 123.023 89.5938 122.312 89.5994 121.455V108.773ZM98.0582 125V111.909H101.578V114.193H101.714C101.953 113.381 102.354 112.767 102.916 112.352C103.479 111.932 104.126 111.722 104.859 111.722C105.041 111.722 105.237 111.733 105.447 111.756C105.658 111.778 105.842 111.81 106.001 111.849V115.071C105.831 115.02 105.595 114.974 105.294 114.935C104.993 114.895 104.717 114.875 104.467 114.875C103.933 114.875 103.456 114.991 103.036 115.224C102.621 115.452 102.291 115.77 102.047 116.179C101.808 116.588 101.689 117.06 101.689 117.594V125H98.0582ZM107.879 125V111.909H111.509V125H107.879ZM109.702 110.222C109.163 110.222 108.7 110.043 108.313 109.685C107.933 109.321 107.742 108.886 107.742 108.381C107.742 107.881 107.933 107.452 108.313 107.094C108.7 106.73 109.163 106.548 109.702 106.548C110.242 106.548 110.702 106.73 111.083 107.094C111.469 107.452 111.663 107.881 111.663 108.381C111.663 108.886 111.469 109.321 111.083 109.685C110.702 110.043 110.242 110.222 109.702 110.222Z" fill="white"/>
<path d="M2.27557 163V136.818H19.6108V141.382H7.81108V147.621H18.4602V152.185H7.81108V163H2.27557ZM34.5938 154.639V143.364H40.0398V163H34.8111V159.433H34.6065C34.1634 160.584 33.4261 161.509 32.3949 162.207C31.3722 162.906 30.1236 163.256 28.6491 163.256C27.3366 163.256 26.1818 162.957 25.1847 162.361C24.1875 161.764 23.4077 160.916 22.8452 159.817C22.2912 158.717 22.0099 157.401 22.0014 155.866V143.364H27.4474V154.895C27.456 156.054 27.767 156.97 28.3807 157.643C28.9943 158.317 29.8168 158.653 30.848 158.653C31.5043 158.653 32.1179 158.504 32.6889 158.206C33.2599 157.899 33.7202 157.447 34.0696 156.851C34.4276 156.254 34.6023 155.517 34.5938 154.639ZM53.3448 163.384C51.3249 163.384 49.5863 162.974 48.1289 162.156C46.68 161.33 45.5636 160.162 44.7795 158.653C43.9954 157.136 43.6033 155.342 43.6033 153.271C43.6033 151.251 43.9954 149.479 44.7795 147.953C45.5636 146.428 46.6673 145.239 48.0906 144.386C49.5224 143.534 51.2013 143.108 53.1275 143.108C54.4229 143.108 55.6289 143.317 56.7454 143.734C57.8704 144.143 58.8505 144.761 59.6857 145.588C60.5295 146.415 61.1857 147.455 61.6545 148.707C62.1232 149.952 62.3576 151.409 62.3576 153.08V154.575H45.7766V151.2H57.2312C57.2312 150.416 57.0607 149.722 56.7198 149.116C56.3789 148.511 55.9059 148.038 55.3008 147.697C54.7042 147.348 54.0096 147.173 53.217 147.173C52.3903 147.173 51.6573 147.365 51.0181 147.749C50.3874 148.124 49.8931 148.631 49.5352 149.27C49.1772 149.901 48.994 150.604 48.9854 151.379V154.588C48.9854 155.56 49.1644 156.399 49.5224 157.107C49.8888 157.814 50.4045 158.359 51.0692 158.743C51.734 159.126 52.5224 159.318 53.4343 159.318C54.0394 159.318 54.5934 159.233 55.0962 159.062C55.5991 158.892 56.0295 158.636 56.3874 158.295C56.7454 157.955 57.0181 157.537 57.2056 157.043L62.2425 157.375C61.9869 158.585 61.4627 159.642 60.6701 160.545C59.886 161.44 58.8718 162.139 57.6275 162.642C56.3917 163.136 54.9641 163.384 53.3448 163.384ZM71.3576 136.818V163H65.9116V136.818H71.3576ZM84.1545 163V136.818H89.69V158.436H100.914V163H84.1545ZM113.35 163.384C111.364 163.384 109.647 162.962 108.198 162.118C106.758 161.266 105.646 160.081 104.862 158.564C104.077 157.038 103.685 155.27 103.685 153.259C103.685 151.23 104.077 149.457 104.862 147.94C105.646 146.415 106.758 145.23 108.198 144.386C109.647 143.534 111.364 143.108 113.35 143.108C115.336 143.108 117.049 143.534 118.489 144.386C119.938 145.23 121.055 146.415 121.839 147.94C122.623 149.457 123.015 151.23 123.015 153.259C123.015 155.27 122.623 157.038 121.839 158.564C121.055 160.081 119.938 161.266 118.489 162.118C117.049 162.962 115.336 163.384 113.35 163.384ZM113.376 159.165C114.279 159.165 115.033 158.909 115.638 158.398C116.244 157.878 116.7 157.17 117.006 156.276C117.322 155.381 117.479 154.362 117.479 153.22C117.479 152.078 117.322 151.06 117.006 150.165C116.7 149.27 116.244 148.562 115.638 148.043C115.033 147.523 114.279 147.263 113.376 147.263C112.464 147.263 111.697 147.523 111.075 148.043C110.461 148.562 109.996 149.27 109.681 150.165C109.374 151.06 109.221 152.078 109.221 153.22C109.221 154.362 109.374 155.381 109.681 156.276C109.996 157.17 110.461 157.878 111.075 158.398C111.697 158.909 112.464 159.165 113.376 159.165ZM135.403 170.773C133.638 170.773 132.126 170.53 130.864 170.044C129.612 169.567 128.614 168.915 127.873 168.088C127.131 167.261 126.65 166.332 126.428 165.301L131.465 164.624C131.619 165.016 131.862 165.382 132.194 165.723C132.526 166.064 132.965 166.337 133.511 166.541C134.065 166.754 134.738 166.861 135.531 166.861C136.715 166.861 137.691 166.571 138.458 165.991C139.234 165.42 139.621 164.462 139.621 163.115V159.523H139.391C139.153 160.068 138.795 160.584 138.317 161.07C137.84 161.555 137.227 161.952 136.477 162.259C135.727 162.565 134.832 162.719 133.792 162.719C132.317 162.719 130.975 162.378 129.765 161.696C128.563 161.006 127.604 159.953 126.888 158.538C126.181 157.115 125.827 155.317 125.827 153.143C125.827 150.919 126.19 149.061 126.914 147.57C127.638 146.078 128.602 144.962 129.803 144.22C131.013 143.479 132.339 143.108 133.779 143.108C134.879 143.108 135.799 143.295 136.54 143.67C137.282 144.037 137.879 144.497 138.33 145.051C138.79 145.597 139.144 146.134 139.391 146.662H139.596V143.364H145.004V163.192C145.004 164.862 144.594 166.26 143.776 167.385C142.958 168.51 141.825 169.354 140.376 169.916C138.935 170.487 137.278 170.773 135.403 170.773ZM135.518 158.628C136.396 158.628 137.137 158.411 137.742 157.976C138.356 157.533 138.825 156.902 139.148 156.084C139.481 155.257 139.647 154.268 139.647 153.118C139.647 151.967 139.485 150.97 139.161 150.126C138.837 149.274 138.369 148.614 137.755 148.145C137.141 147.676 136.396 147.442 135.518 147.442C134.623 147.442 133.869 147.685 133.255 148.17C132.641 148.648 132.177 149.312 131.862 150.165C131.546 151.017 131.388 152.001 131.388 153.118C131.388 154.251 131.546 155.232 131.862 156.058C132.185 156.876 132.65 157.511 133.255 157.963C133.869 158.406 134.623 158.628 135.518 158.628Z" fill="white"/>
<defs>
<linearGradient id="paint0_linear_445_15057" x1="80.1569" y1="9.04331" x2="112.962" y2="28.8242" gradientUnits="userSpaceOnUse">
<stop offset="0.0001" stop-color="#C7C7C7"/>
<stop offset="1" stop-color="white"/>
</linearGradient>
<linearGradient id="paint1_linear_445_15057" x1="58.0307" y1="19.7433" x2="78.2633" y2="74.7313" gradientUnits="userSpaceOnUse">
<stop stop-color="#DCDCDC"/>
<stop offset="0.534923" stop-color="#D6D6D6"/>
<stop offset="1" stop-color="#A1D2FF"/>
</linearGradient>
<linearGradient id="paint2_linear_445_15057" x1="99.8637" y1="49.661" x2="35.4421" y2="88.8849" gradientUnits="userSpaceOnUse">
<stop stop-color="white"/>
<stop offset="0.425064" stop-color="#F4F4F4"/>
<stop offset="0.567041" stop-color="#E2E2E2"/>
<stop offset="0.686538" stop-color="#B0D7FF"/>
</linearGradient>
<linearGradient id="paint3_linear_445_15057" x1="90.5529" y1="0.363247" x2="50.5842" y2="50.6345" gradientUnits="userSpaceOnUse">
<stop stop-color="#FAFAFA"/>
<stop offset="0.427083" stop-color="#E6E6E6"/>
<stop offset="1" stop-color="#F4F4F4"/>
</linearGradient>
<clipPath id="clip0_445_15057">
<rect width="76.375" height="88.9267" fill="white" transform="translate(44.623 0.00109863)"/>
</clipPath>
</defs>
</svg>
