<svg width="44" height="44" viewBox="0 0 44 44" fill="none" xmlns="http://www.w3.org/2000/svg">
<ellipse cx="22" cy="22" rx="22" ry="22" fill="#3150F5"/>
<path d="M19.2499 13.7501H24.7499L26.5832 15.5835H30.2499C30.7561 15.5835 31.1665 15.9939 31.1665 16.5001V29.3335C31.1665 29.8398 30.7561 30.2501 30.2499 30.2501H13.7499C13.2436 30.2501 12.8332 29.8398 12.8332 29.3335V16.5001C12.8332 15.9939 13.2436 15.5835 13.7499 15.5835H17.4165L19.2499 13.7501ZM21.9999 28.4168C25.0374 28.4168 27.4999 25.9544 27.4999 22.9168C27.4999 19.8792 25.0374 17.4168 21.9999 17.4168C18.9623 17.4168 16.4999 19.8792 16.4999 22.9168C16.4999 25.9544 18.9623 28.4168 21.9999 28.4168ZM21.9999 26.5835C19.9748 26.5835 18.3332 24.9418 18.3332 22.9168C18.3332 20.8918 19.9748 19.2501 21.9999 19.2501C24.0249 19.2501 25.6665 20.8918 25.6665 22.9168C25.6665 24.9418 24.0249 26.5835 21.9999 26.5835Z" fill="white"/>
</svg>
