<svg width="23" height="21" viewBox="0 0 23 21" fill="none" xmlns="http://www.w3.org/2000/svg">
<path d="M10.4167 20.9166C4.6637 20.9166 0 16.2529 0 10.5C0 4.74701 4.6637 0.083313 10.4167 0.083313C13.8243 0.083313 16.8497 1.71954 18.7502 4.24918L15.928 4.24926C14.4591 2.95309 12.5297 2.16665 10.4167 2.16665C5.81429 2.16665 2.08333 5.8976 2.08333 10.5C2.08333 15.1024 5.81429 18.8333 10.4167 18.8333C12.5302 18.8333 14.46 18.0464 15.9291 16.7498H18.7509C16.8505 19.28 13.8247 20.9166 10.4167 20.9166ZM17.7083 14.6666V11.5416H9.375V9.45831H17.7083V6.33331L22.9167 10.5L17.7083 14.6666Z" fill="black"/>
</svg>
