<svg width="19" height="20" viewBox="0 0 19 20" fill="none" xmlns="http://www.w3.org/2000/svg">
<path d="M16.1875 13.4071V16.1328C16.1875 16.5375 15.8746 16.8733 15.471 16.9018C15.1338 16.9256 14.8588 16.9375 14.6458 16.9375C7.83429 16.9375 2.3125 11.4157 2.3125 4.60417C2.3125 4.39119 2.32441 4.11613 2.34823 3.77899C2.37676 3.37537 2.71252 3.0625 3.11714 3.0625H5.84299C6.04085 3.0625 6.20656 3.21237 6.22643 3.40922C6.24427 3.58595 6.26085 3.72784 6.27618 3.83489C6.4321 4.92385 6.7506 5.96034 7.20629 6.919C7.27943 7.07288 7.23173 7.25706 7.09309 7.35609L5.4294 8.54451C6.44226 10.9104 8.33957 12.8078 10.7055 13.8206L11.8917 12.1598C11.992 12.0195 12.1784 11.9713 12.3341 12.0452C13.2927 12.5005 14.3291 12.8186 15.4179 12.9742C15.5243 12.9894 15.6653 13.0059 15.8408 13.0236C16.0376 13.0435 16.1875 13.2092 16.1875 13.4071Z" fill="black"/>
</svg>
