<svg width="27" height="27" viewBox="0 0 27 27" fill="none" xmlns="http://www.w3.org/2000/svg">
<path d="M4.5 3.375H19.125L23.2955 7.5455C23.5064 7.75647 23.625 8.04262 23.625 8.34099V22.5C23.625 23.1213 23.1213 23.625 22.5 23.625H4.5C3.87868 23.625 3.375 23.1213 3.375 22.5V4.5C3.375 3.87868 3.87868 3.375 4.5 3.375ZM13.5 20.25C15.364 20.25 16.875 18.739 16.875 16.875C16.875 15.011 15.364 13.5 13.5 13.5C11.636 13.5 10.125 15.011 10.125 16.875C10.125 18.739 11.636 20.25 13.5 20.25ZM5.625 5.625V10.125H16.875V5.625H5.625Z" fill="white"/>
</svg>
