<svg width="41" height="41" viewBox="0 0 41 41" fill="none" xmlns="http://www.w3.org/2000/svg">
<rect width="41" height="41" rx="9" fill="#EBEEF4"/>
<path d="M20 30C25.5228 30 30 25.5228 30 20C30 14.4772 25.5228 10 20 10C14.4772 10 10 14.4772 10 20C10 25.5228 14.4772 30 20 30Z" stroke="#0E7CEC" stroke-width="2" stroke-linecap="round" stroke-linejoin="round"/>
<path d="M17.0901 17C17.3252 16.3316 17.7892 15.7681 18.4 15.4091C19.0108 15.0501 19.729 14.9189 20.4273 15.0387C21.1255 15.1584 21.7589 15.5215 22.2152 16.0635C22.6714 16.6055 22.9211 17.2915 22.9201 18C22.9201 20 19.9201 21 19.9201 21" stroke="#0E7CEC" stroke-width="2" stroke-linecap="round" stroke-linejoin="round"/>
<path d="M20 25H20.01" stroke="#0E7CEC" stroke-width="2" stroke-linecap="round" stroke-linejoin="round"/>
</svg>
