<svg width="47" height="46" viewBox="0 0 47 46" fill="none" xmlns="http://www.w3.org/2000/svg">
<path d="M30.2083 9.58333C26.5034 9.58333 23.5 12.5868 23.5 16.2917C23.5 19.9966 26.5034 23 30.2083 23C33.9133 23 36.9167 19.9966 36.9167 16.2917C36.9167 12.5868 33.9133 9.58333 30.2083 9.58333ZM19.6667 16.2917C19.6667 10.4697 24.3863 5.75 30.2083 5.75C36.0304 5.75 40.75 10.4697 40.75 16.2917C40.75 18.5102 40.0646 20.5687 38.8941 22.2669L44.0219 27.3947L41.3114 30.1053L36.1835 24.9774C34.4854 26.1479 32.4269 26.8333 30.2083 26.8333C24.3863 26.8333 19.6667 22.1137 19.6667 16.2917ZM6.25 7.66667H15.8333V11.5H6.25V7.66667ZM6.25 21.0833H15.8333V24.9167H6.25V21.0833ZM40.75 34.5V38.3333H6.25V34.5H40.75Z" fill="#0056DD"/>
</svg>
