<svg width="45" height="46" viewBox="0 0 45 46" fill="none" xmlns="http://www.w3.org/2000/svg">
<path d="M31.875 38H13.125V39.875C13.125 40.9106 12.2855 41.75 11.25 41.75H9.375C8.33947 41.75 7.5 40.9106 7.5 39.875V38H5.625V23H3.75V15.5H5.625V9.875C5.625 7.80393 7.30393 6.125 9.375 6.125H35.625C37.6961 6.125 39.375 7.80393 39.375 9.875V15.5H41.25V23H39.375V38H37.5V39.875C37.5 40.9106 36.6606 41.75 35.625 41.75H33.75C32.7144 41.75 31.875 40.9106 31.875 39.875V38ZM35.625 23V9.875H9.375V23H35.625ZM35.625 26.75H9.375V34.25H35.625V26.75ZM11.25 28.625H18.75V32.375H11.25V28.625ZM26.25 28.625H33.75V32.375H26.25V28.625Z" fill="#3150F5"/>
<line x1="3.01742" y1="4.89779" x2="42.0174" y2="40.8978" stroke="#D20000" stroke-width="3"/>
</svg>
