<svg width="32" height="32" viewBox="0 0 32 32" fill="none" xmlns="http://www.w3.org/2000/svg">
<path d="M5 10C5.13133 10 5.26138 9.97419 5.38272 9.92395C5.50406 9.87371 5.61432 9.80005 5.70718 9.70718C5.80005 9.61432 5.87371 9.50407 5.92395 9.38272C5.97419 9.26138 6.00003 9.13133 6 9V6H9C9.26522 6 9.51957 5.89464 9.70711 5.70711C9.89464 5.51957 10 5.26522 10 5C10 4.73478 9.89464 4.48043 9.70711 4.29289C9.51957 4.10536 9.26522 4 9 4H5C4.86867 3.99997 4.73862 4.02581 4.61728 4.07605C4.49594 4.12629 4.38568 4.19995 4.29282 4.29282C4.19995 4.38568 4.12629 4.49594 4.07605 4.61728C4.02581 4.73862 3.99997 4.86867 4 5V9C3.99997 9.13133 4.02581 9.26138 4.07605 9.38272C4.12629 9.50407 4.19995 9.61432 4.29282 9.70718C4.38568 9.80005 4.49594 9.87371 4.61728 9.92395C4.73862 9.97419 4.86867 10 5 10Z" fill="#0056DD"/>
<path d="M27 4H23C22.7348 4 22.4804 4.10536 22.2929 4.29289C22.1054 4.48043 22 4.73478 22 5C22 5.26522 22.1054 5.51957 22.2929 5.70711C22.4804 5.89464 22.7348 6 23 6H26V9C26 9.26522 26.1054 9.51957 26.2929 9.70711C26.4804 9.89464 26.7348 10 27 10C27.2652 10 27.5196 9.89464 27.7071 9.70711C27.8946 9.51957 28 9.26522 28 9V5C28 4.86867 27.9742 4.73862 27.9239 4.61728C27.8737 4.49594 27.8 4.38568 27.7072 4.29282C27.6143 4.19995 27.5041 4.12629 27.3827 4.07605C27.2614 4.02581 27.1313 3.99997 27 4Z" fill="#0056DD"/>
<path d="M27 22C26.8687 22 26.7386 22.0258 26.6173 22.0761C26.4959 22.1263 26.3857 22.2 26.2928 22.2928C26.2 22.3857 26.1263 22.4959 26.0761 22.6173C26.0258 22.7386 26 22.8687 26 23V26H23C22.7348 26 22.4804 26.1054 22.2929 26.2929C22.1054 26.4804 22 26.7348 22 27C22 27.2652 22.1054 27.5196 22.2929 27.7071C22.4804 27.8946 22.7348 28 23 28H27C27.1313 28 27.2614 27.9742 27.3827 27.9239C27.5041 27.8737 27.6143 27.8 27.7072 27.7072C27.8 27.6143 27.8737 27.5041 27.9239 27.3827C27.9742 27.2614 28 27.1313 28 27V23C28 22.8687 27.9742 22.7386 27.9239 22.6173C27.8737 22.4959 27.8 22.3857 27.7072 22.2928C27.6143 22.2 27.5041 22.1263 27.3827 22.0761C27.2614 22.0258 27.1313 22 27 22Z" fill="#0056DD"/>
<path d="M9 26H6V23C6 22.7348 5.89464 22.4804 5.70711 22.2929C5.51957 22.1054 5.26522 22 5 22C4.73478 22 4.48043 22.1054 4.29289 22.2929C4.10536 22.4804 4 22.7348 4 23V27C3.99997 27.1313 4.02581 27.2614 4.07605 27.3827C4.12629 27.5041 4.19995 27.6143 4.29282 27.7072C4.38568 27.8 4.49594 27.8737 4.61728 27.9239C4.73862 27.9742 4.86867 28 5 28H9C9.26522 28 9.51957 27.8946 9.70711 27.7071C9.89464 27.5196 10 27.2652 10 27C10 26.7348 9.89464 26.4804 9.70711 26.2929C9.51957 26.1054 9.26522 26 9 26Z" fill="#0056DD"/>
<path d="M23 23C23.2652 23 23.5196 22.8946 23.7071 22.7071C23.8946 22.5196 24 22.2652 24 22V19H8V22C8 22.2652 8.10536 22.5196 8.29289 22.7071C8.48043 22.8946 8.73478 23 9 23H23Z" fill="#0056DD"/>
<path d="M27 15H24V10C24 9.73478 23.8946 9.48043 23.7071 9.29289C23.5196 9.10536 23.2652 9 23 9H9C8.73478 9 8.48043 9.10536 8.29289 9.29289C8.10536 9.48043 8 9.73478 8 10V15H5C4.73478 15 4.48043 15.1054 4.29289 15.2929C4.10536 15.4804 4 15.7348 4 16C4 16.2652 4.10536 16.5196 4.29289 16.7071C4.48043 16.8946 4.73478 17 5 17H27C27.2652 17 27.5196 16.8946 27.7071 16.7071C27.8946 16.5196 28 16.2652 28 16C28 15.7348 27.8946 15.4804 27.7071 15.2929C27.5196 15.1054 27.2652 15 27 15Z" fill="#0056DD"/>
</svg>
