<svg width="29" height="30" viewBox="0 0 29 30" fill="none" xmlns="http://www.w3.org/2000/svg">
<path d="M18.3079 1.99286C20.8986 1.99286 22.194 1.99286 23.6045 2.42464C25.1301 2.97157 26.3391 4.18057 26.886 5.70622C27.3466 7.11672 27.3466 8.44086 27.3466 11.0316V18.8613C27.3466 21.452 27.3466 22.7474 26.9148 24.1579C26.3679 25.6835 25.1589 26.8925 23.6332 27.4394C22.194 27.9 20.8986 27.9 18.3079 27.9H10.4782C7.88745 27.9 6.5921 27.9 5.1816 27.4682C3.62717 26.8925 2.44695 25.7123 1.87124 24.1579C1.43945 22.7761 1.43945 21.4808 1.43945 18.8613V11.0316C1.43945 8.44086 1.43945 7.1455 1.87124 5.735C2.44695 4.20936 3.62717 3.00036 5.1816 2.45343C6.56331 1.99286 7.85867 1.99286 10.4782 1.99286H18.3079Z" fill="url(#paint0_linear_779_326)"/>
<path d="M11.8022 7.60608H16.9836C17.329 7.60608 17.8184 7.83636 18.0199 8.12422L19.4592 10.2256C19.6031 10.4271 19.8334 10.5422 20.0637 10.5422H23.1438C23.8634 10.5422 24.4391 11.1179 24.4391 11.8376V21.3369C24.4391 22.0565 23.8634 22.6322 23.1438 22.6322H5.64204C4.92239 22.6322 4.34668 22.0565 4.34668 21.3369V11.8376C4.34668 11.1179 4.92239 10.5422 5.64204 10.5422H8.72211C8.95239 10.5422 9.18268 10.4271 9.32661 10.2256L10.7659 8.12422C10.9674 7.83636 11.428 7.60608 11.8022 7.60608ZM19.2577 12.2118C19.2577 12.586 19.5455 12.8739 19.9198 12.8739C20.2652 12.8739 20.5818 12.586 20.5818 12.2118C20.5818 11.8376 20.294 11.5497 19.9198 11.5497C19.5455 11.5497 19.2577 11.8376 19.2577 12.2118ZM9.84475 16.4721C9.84475 19.0052 11.8885 21.049 14.3929 21.049C16.8973 21.049 18.941 19.0052 18.941 16.4721C18.941 13.9389 16.8973 11.8952 14.3929 11.8952C11.8885 11.8952 9.84475 13.9389 9.84475 16.4721ZM6.27532 8.26815H7.57068C7.91611 8.26815 8.20397 8.55601 8.20397 8.93022V9.59229H5.61325V8.93022C5.64204 8.55601 5.92989 8.26815 6.27532 8.26815ZM10.8235 16.4721C10.8235 14.4859 12.4067 12.8739 14.3929 12.8739C16.3791 12.8739 17.9623 14.4859 17.9623 16.4721C17.9623 18.4583 16.3791 20.0703 14.3929 20.0703C12.4067 20.0703 10.8235 18.4583 10.8235 16.4721Z" fill="#353535"/>
<path d="M19.2578 12.2118C19.2578 12.586 19.5457 12.8739 19.9199 12.8739C20.2653 12.8739 20.582 12.586 20.582 12.2118C20.582 11.8376 20.2941 11.5497 19.9199 11.5497C19.5457 11.5497 19.2578 11.8376 19.2578 12.2118Z" fill="url(#paint1_linear_779_326)"/>
<defs>
<linearGradient id="paint0_linear_779_326" x1="14.389" y1="2.00092" x2="14.389" y2="27.8994" gradientUnits="userSpaceOnUse">
<stop stop-color="#EAEAEA"/>
<stop offset="1" stop-color="#BABEC3"/>
</linearGradient>
<linearGradient id="paint1_linear_779_326" x1="19.2458" y1="12.2005" x2="20.542" y2="12.2005" gradientUnits="userSpaceOnUse">
<stop stop-color="#FFDB4C"/>
<stop offset="1" stop-color="#FFCD02"/>
</linearGradient>
</defs>
</svg>
