<svg width="26" height="26" viewBox="0 0 26 26" fill="none" xmlns="http://www.w3.org/2000/svg">
<path d="M13 2.16666C18.983 2.16666 23.8333 7.0169 23.8333 13C23.8333 18.983 18.983 23.8333 13 23.8333C7.01687 23.8333 2.16663 18.983 2.16663 13C2.16663 7.0169 7.01687 2.16666 13 2.16666ZM13 4.33332C8.21349 4.33332 4.33329 8.21352 4.33329 13C4.33329 17.7865 8.21349 21.6667 13 21.6667C17.7865 21.6667 21.6666 17.7865 21.6666 13C21.6666 8.21352 17.7865 4.33332 13 4.33332ZM17.1523 7.94893C17.4088 7.76888 17.7575 7.79919 17.9792 8.02078C18.2002 8.24182 18.2289 8.59033 18.0469 8.84452C15.6855 12.1436 14.3862 13.9118 14.1491 14.1491C13.5144 14.7836 12.4855 14.7836 11.8509 14.1491C11.2164 13.5145 11.2164 12.4855 11.8509 11.8509C12.2553 11.4466 14.0224 10.1459 17.1523 7.94893ZM18.9583 11.9167C19.5566 11.9167 20.0416 12.4017 20.0416 13C20.0416 13.5983 19.5566 14.0833 18.9583 14.0833C18.36 14.0833 17.875 13.5983 17.875 13C17.875 12.4017 18.36 11.9167 18.9583 11.9167ZM7.04163 11.9167C7.63993 11.9167 8.12496 12.4017 8.12496 13C8.12496 13.5983 7.63993 14.0833 7.04163 14.0833C6.44332 14.0833 5.95829 13.5983 5.95829 13C5.95829 12.4017 6.44332 11.9167 7.04163 11.9167ZM9.55281 8.02078C9.97588 8.44385 9.97588 9.12978 9.55281 9.55284C9.12975 9.97591 8.44382 9.97591 8.02075 9.55284C7.59768 9.12978 7.59768 8.44385 8.02075 8.02078C8.44382 7.59771 9.12975 7.59771 9.55281 8.02078ZM13 5.95832C13.5983 5.95832 14.0833 6.44335 14.0833 7.04166C14.0833 7.63996 13.5983 8.12499 13 8.12499C12.4016 8.12499 11.9166 7.63996 11.9166 7.04166C11.9166 6.44335 12.4016 5.95832 13 5.95832Z" fill="black"/>
</svg>
