<svg width="398" height="128" viewBox="0 0 398 128" fill="none" xmlns="http://www.w3.org/2000/svg">
<g filter="url(#filter0_f_779_187)">
<path d="M390.514 114.875C373.505 82.9739 346.562 55.9418 312.813 36.9151C279.064 17.8885 239.892 7.64754 199.842 7.38057C159.793 7.1136 120.508 16.8316 86.5464 35.4069C52.585 53.9821 25.3394 80.6531 7.97115 112.325L22.3101 118.422C38.3732 89.1302 63.5715 64.4634 94.981 47.284C126.39 30.1045 162.723 21.1168 199.763 21.3637C236.803 21.6106 273.032 31.082 304.245 48.6789C335.458 66.2758 360.376 91.2766 376.107 120.78L390.514 114.875Z" fill="url(#paint0_linear_779_187)" fill-opacity="0.88"/>
</g>
<defs>
<filter id="filter0_f_779_187" x="0.971191" y="0.375244" width="396.543" height="127.405" filterUnits="userSpaceOnUse" color-interpolation-filters="sRGB">
<feFlood flood-opacity="0" result="BackgroundImageFix"/>
<feBlend mode="normal" in="SourceGraphic" in2="BackgroundImageFix" result="shape"/>
<feGaussianBlur stdDeviation="3.5" result="effect1_foregroundBlur_779_187"/>
</filter>
<linearGradient id="paint0_linear_779_187" x1="378.812" y1="132.696" x2="7.68612" y2="133.221" gradientUnits="userSpaceOnUse">
<stop offset="0.00341749" stop-color="white"/>
<stop offset="0.191272" stop-color="#A3C7FF"/>
<stop offset="0.494758" stop-color="#B5D2FF"/>
<stop offset="0.877523" stop-color="#C8DDFF"/>
<stop offset="0.986746" stop-color="white" stop-opacity="0"/>
</linearGradient>
</defs>
</svg>
