<svg width="15" height="16" viewBox="0 0 15 16" fill="none" xmlns="http://www.w3.org/2000/svg">
<g clip-path="url(#clip0_779_318)">
<path d="M13.657 2.46655L12.407 1.21654C12.2849 1.09446 12.0871 1.09446 11.9651 1.21654C11.843 1.33862 11.843 1.53638 11.9651 1.65843L12.9942 2.68748L11.9651 3.71653C11.9065 3.77513 11.8735 3.85446 11.8735 3.93749V4.87499C11.8735 5.5644 12.4342 6.125 13.1236 6.125V11.4375C13.1236 11.6099 12.9835 11.75 12.811 11.75C12.6386 11.75 12.4985 11.6099 12.4985 11.4375V10.8125C12.4985 10.2955 12.078 9.875 11.561 9.875H11.2486V1.75001C11.2486 1.0606 10.688 0.5 9.99854 0.5H3.74855C3.05917 0.5 2.49854 1.0606 2.49854 1.75001V13C1.80916 13 1.24854 13.5606 1.24854 14.25V15.1875C1.24854 15.3603 1.38831 15.5 1.56104 15.5H12.1861C12.3588 15.5 12.4986 15.3603 12.4986 15.1875V14.25C12.4986 13.5606 11.938 13 11.2486 13V10.5H11.5611C11.7335 10.5 11.8736 10.6401 11.8736 10.8125V11.4375C11.8736 11.9545 12.2941 12.375 12.8111 12.375C13.328 12.375 13.7486 11.9545 13.7486 11.4375V2.68751C13.7485 2.60448 13.7156 2.52515 13.657 2.46655ZM9.99854 5.81829C9.99854 5.99103 9.85877 6.1308 9.68604 6.1308H4.06104C3.8883 6.1308 3.74853 5.99103 3.74853 5.81829V2.06249C3.74853 1.88976 3.8883 1.74998 4.06104 1.74998H9.68604C9.85877 1.74998 9.99854 1.88976 9.99854 2.06249V5.81829Z" fill="#26C53F"/>
</g>
<defs>
<clipPath id="clip0_779_318">
<rect width="15" height="15" fill="white" transform="translate(0 0.5)"/>
</clipPath>
</defs>
</svg>
