<svg width="316" height="88" viewBox="0 0 316 88" fill="none" xmlns="http://www.w3.org/2000/svg">
<line y1="-0.5" x2="20.0292" y2="-0.5" transform="matrix(0.732794 0.680451 0.680451 -0.732794 1.03467 70.9276)" stroke="#538CE9"/>
<line y1="-0.5" x2="20.0292" y2="-0.5" transform="matrix(0.581825 0.813314 0.813314 -0.581825 33.9978 40.241)" stroke="#538CE9"/>
<line y1="-0.5" x2="20.0292" y2="-0.5" transform="matrix(0.420104 0.907476 0.907476 -0.420104 71.8457 18.0461)" stroke="#538CE9"/>
<line y1="-0.5" x2="20.0292" y2="-0.5" transform="matrix(0.166264 0.986081 0.986081 -0.166264 115.755 4.78577)" stroke="#538CE9"/>
<line y1="-0.5" x2="20.0292" y2="-0.5" transform="matrix(-0.00542384 0.999985 0.999985 0.00542384 158.964 0.713379)" stroke="#538CE9"/>
<line y1="-0.5" x2="20.0292" y2="-0.5" transform="matrix(-0.190311 0.981724 0.981724 0.190311 203.235 6.00037)" stroke="#538CE9"/>
<line y1="-0.5" x2="20.0292" y2="-0.5" transform="matrix(-0.389731 0.920929 0.920929 0.389731 244.826 20.4199)" stroke="#538CE9"/>
<line y1="-0.5" x2="20.0292" y2="-0.5" transform="matrix(-0.607557 0.794276 0.794276 0.607557 283.6 43.2648)" stroke="#538CE9"/>
<line y1="-0.5" x2="20.0292" y2="-0.5" transform="matrix(-0.722489 0.691382 0.691382 0.722489 315.238 73.8713)" stroke="#538CE9"/>
<line y1="-0.5" x2="9.70196" y2="-0.5" transform="matrix(-0.627034 0.778992 0.778992 0.627034 300.664 57.0781)" stroke="#C2D5F5"/>
<line y1="-0.5" x2="9.70196" y2="-0.5" transform="matrix(-0.509616 0.860402 0.860402 0.509616 264.45 30.4734)" stroke="#C2D5F5"/>
<line y1="-0.5" x2="9.70196" y2="-0.5" transform="matrix(-0.221318 0.975202 0.975202 0.221318 223.693 11.6991)" stroke="#C2D5F5"/>
<line y1="-0.5" x2="9.70196" y2="-0.5" transform="matrix(-0.101112 0.994875 0.994875 0.101112 180.823 1.61133)" stroke="#C2D5F5"/>
<line y1="-0.5" x2="9.70196" y2="-0.5" transform="matrix(0.0785394 0.996911 0.996911 -0.0785394 136.386 1.50647)" stroke="#C2D5F5"/>
<line y1="-0.5" x2="9.70196" y2="-0.5" transform="matrix(0.285322 0.958432 0.958432 -0.285322 92.7878 10.1377)" stroke="#C2D5F5"/>
<line y1="-0.5" x2="9.70196" y2="-0.5" transform="matrix(0.497539 0.867442 0.867442 -0.497539 52.4231 27.4744)" stroke="#C2D5F5"/>
<line y1="-0.5" x2="9.70196" y2="-0.5" transform="matrix(0.645409 0.763838 0.763838 -0.645409 16.0435 53.5775)" stroke="#C2D5F5"/>
</svg>
