<svg width="28" height="28" viewBox="0 0 28 28" fill="none" xmlns="http://www.w3.org/2000/svg">
<path d="M26.4095 5.12622H1.59052C0.715161 5.12622 0 5.83566 0 6.71674V21.2831C0 22.1585 0.70944 22.8737 1.59052 22.8737H26.4095C27.2848 22.8737 28 22.1642 28 21.2831V6.71674C27.9943 5.83566 27.2848 5.12622 26.4095 5.12622ZM17.5014 8.46745C17.5014 8.25005 17.6788 8.07269 17.8962 8.07269H19.5153C19.7327 8.07269 19.9101 8.25005 19.9101 8.46745V10.058C19.9101 10.2754 19.7327 10.4527 19.5153 10.4527H17.8962C17.6788 10.4527 17.5014 10.2754 17.5014 10.058V8.46745ZM15.5333 12.787H17.1524C17.3698 12.787 17.5472 12.9644 17.5472 13.1818V14.7723C17.5472 14.9897 17.3698 15.1671 17.1524 15.1671H15.5333C15.3159 15.1671 15.1385 14.9897 15.1385 14.7723V13.1818C15.1385 12.9644 15.3159 12.787 15.5333 12.787ZM12.7985 8.46745C12.7985 8.25005 12.9759 8.07269 13.1933 8.07269H14.8124C15.0298 8.07269 15.2072 8.25005 15.2072 8.46745V10.058C15.2072 10.2754 15.0298 10.4527 14.8124 10.4527H13.1933C12.9759 10.4527 12.7985 10.2754 12.7985 10.058V8.46745ZM10.8247 12.787H12.4438C12.6612 12.787 12.8386 12.9644 12.8386 13.1818V14.7723C12.8386 14.9897 12.6612 15.1671 12.4438 15.1671H10.8247C10.6073 15.1671 10.4299 14.9897 10.4299 14.7723V13.1818C10.4299 12.9644 10.6073 12.787 10.8247 12.787ZM8.08991 8.46745C8.08991 8.25005 8.26727 8.07269 8.48468 8.07269H10.1038C10.3212 8.07269 10.4986 8.25005 10.4986 8.46745V10.058C10.4986 10.2754 10.3212 10.4527 10.1038 10.4527H8.48468C8.26727 10.4527 8.08991 10.2754 8.08991 10.058V8.46745ZM3.3584 8.46745C3.3584 8.25005 3.53576 8.07269 3.75317 8.07269H5.37229C5.5897 8.07269 5.76706 8.25005 5.76706 8.46745V10.058C5.76706 10.2754 5.5897 10.4527 5.37229 10.4527H3.75317C3.53576 10.4527 3.3584 10.2754 3.3584 10.058V8.46745ZM5.76706 19.5324C5.76706 19.7498 5.5897 19.9272 5.37229 19.9272H3.75317C3.53576 19.9272 3.3584 19.7498 3.3584 19.5324V17.9419C3.3584 17.7245 3.53576 17.5471 3.75317 17.5471H5.37229C5.5897 17.5471 5.76706 17.7245 5.76706 17.9419V19.5324ZM7.7123 15.1671H6.09318C5.87577 15.1671 5.69841 14.9897 5.69841 14.7723V13.1818C5.69841 12.9644 5.87577 12.787 6.09318 12.787H7.7123C7.92971 12.787 8.10707 12.9644 8.10707 13.1818V14.7723C8.10707 14.9897 7.92971 15.1671 7.7123 15.1671ZM19.9101 19.5324C19.9101 19.7498 19.7327 19.9272 19.5153 19.9272H19.029H17.9019H14.8181H13.199H8.4904C8.27299 19.9272 8.09563 19.7498 8.09563 19.5324V17.9419C8.09563 17.7245 8.27299 17.5471 8.4904 17.5471H13.199H14.8181H17.9019H19.029H19.5153C19.7327 17.5471 19.9101 17.7245 19.9101 17.9419V19.5324ZM21.8553 15.1671H20.2362C20.0188 15.1671 19.8414 14.9897 19.8414 14.7723V13.1818C19.8414 12.9644 20.0188 12.787 20.2362 12.787H21.8553C22.0727 12.787 22.2501 12.9644 22.2501 13.1818V14.7723C22.2501 14.9897 22.0727 15.1671 21.8553 15.1671ZM24.6416 19.5324C24.6416 19.7498 24.4642 19.9272 24.2468 19.9272H22.6277C22.4103 19.9272 22.2329 19.7498 22.2329 19.5324V17.9419C22.2329 17.7245 22.4103 17.5471 22.6277 17.5471H24.2468C24.4642 17.5471 24.6416 17.7245 24.6416 17.9419V19.5324ZM24.6416 10.058C24.6416 10.2754 24.4642 10.4527 24.2468 10.4527H22.6277C22.4103 10.4527 22.2329 10.2754 22.2329 10.058V8.46745C22.2329 8.25005 22.4103 8.07269 22.6277 8.07269H24.2468C24.4642 8.07269 24.6416 8.25005 24.6416 8.46745V10.058Z" fill="black"/>
</svg>
