<svg width="372" height="62" viewBox="0 0 372 62" fill="none" xmlns="http://www.w3.org/2000/svg">
<g filter="url(#filter0_b_705_21867)">
<rect width="372" height="62" rx="31" fill="#3150F5"/>
</g>
<path d="M111.958 28.6278L105.848 22.5177C105.092 21.7637 104.068 21.3404 103 21.3404C101.933 21.3404 100.908 21.7637 100.152 22.5177L94.043 28.6278C93.8178 28.8515 93.6392 29.1178 93.5177 29.411C93.3962 29.7043 93.3341 30.0187 93.335 30.3362V38.2433C93.335 38.8841 93.5895 39.4987 94.0427 39.9519C94.4959 40.405 95.1105 40.6596 95.7513 40.6596H110.249C110.89 40.6596 111.505 40.405 111.958 39.9519C112.411 39.4987 112.666 38.8841 112.666 38.2433V30.3362C112.667 30.0187 112.605 29.7043 112.483 29.411C112.361 29.1178 112.183 28.8515 111.958 28.6278ZM105.417 39.0487H100.584V35.8801C100.584 35.2392 100.839 34.6246 101.292 34.1715C101.745 33.7183 102.36 33.4637 103 33.4637C103.641 33.4637 104.256 33.7183 104.709 34.1715C105.162 34.6246 105.417 35.2392 105.417 35.8801V39.0487ZM111.055 38.2433C111.055 38.4569 110.97 38.6617 110.819 38.8128C110.668 38.9639 110.463 39.0487 110.249 39.0487H107.028V35.8801C107.028 34.812 106.603 33.7876 105.848 33.0324C105.093 32.2771 104.068 31.8528 103 31.8528C101.932 31.8528 100.908 32.2771 100.153 33.0324C99.3974 33.7876 98.9731 34.812 98.9731 35.8801V39.0487H95.7513C95.5377 39.0487 95.3328 38.9639 95.1818 38.8128C95.0307 38.6617 94.9459 38.4569 94.9459 38.2433V30.3362C94.9466 30.1227 95.0314 29.9181 95.1819 29.7667L101.291 23.659C101.745 23.2071 102.36 22.9534 103 22.9534C103.641 22.9534 104.256 23.2071 104.71 23.659L110.819 29.7691C110.969 29.9199 111.053 30.1235 111.055 30.3362V38.2433Z" fill="white"/>
<path d="M127.668 39V23.6H134.356C135.397 23.6 136.27 23.754 136.974 24.062C137.678 24.3553 138.213 24.788 138.58 25.36C138.961 25.9173 139.152 26.6067 139.152 27.428C139.152 28.2787 138.925 28.9973 138.47 29.584C138.03 30.1707 137.407 30.5813 136.6 30.816L136.578 30.354C137.253 30.5153 137.839 30.7867 138.338 31.168C138.851 31.5347 139.247 31.9893 139.526 32.532C139.819 33.0747 139.966 33.6907 139.966 34.38C139.966 35.1427 139.834 35.8173 139.57 36.404C139.321 36.976 138.954 37.46 138.47 37.856C138.001 38.2373 137.436 38.5233 136.776 38.714C136.116 38.9047 135.383 39 134.576 39H127.668ZM130.836 36.14H134.444C135.148 36.14 135.698 35.9787 136.094 35.656C136.49 35.3187 136.688 34.8493 136.688 34.248C136.688 33.8667 136.593 33.544 136.402 33.28C136.211 33.016 135.94 32.818 135.588 32.686C135.236 32.554 134.818 32.488 134.334 32.488H130.836V36.14ZM130.836 29.826H133.96C134.371 29.826 134.715 29.76 134.994 29.628C135.287 29.4813 135.515 29.2833 135.676 29.034C135.837 28.77 135.918 28.4693 135.918 28.132C135.918 27.604 135.735 27.1933 135.368 26.9C135.016 26.6067 134.488 26.46 133.784 26.46H130.836V29.826ZM148.928 39V31.718C148.928 31.102 148.737 30.6327 148.356 30.31C147.989 29.9727 147.491 29.804 146.86 29.804C146.259 29.804 145.723 29.9213 145.254 30.156C144.785 30.3907 144.345 30.7573 143.934 31.256L142.02 29.408C142.724 28.6747 143.509 28.11 144.374 27.714C145.254 27.318 146.207 27.12 147.234 27.12C148.173 27.12 148.987 27.2667 149.676 27.56C150.38 27.8533 150.923 28.2933 151.304 28.88C151.685 29.4667 151.876 30.2073 151.876 31.102V39H148.928ZM145.738 39.22C145.005 39.22 144.337 39.0733 143.736 38.78C143.149 38.4867 142.68 38.0833 142.328 37.57C141.991 37.042 141.822 36.426 141.822 35.722C141.822 35.1207 141.932 34.5927 142.152 34.138C142.372 33.6687 142.695 33.2873 143.12 32.994C143.56 32.686 144.103 32.4513 144.748 32.29C145.408 32.1287 146.171 32.048 147.036 32.048H150.468L150.27 34.138H146.992C146.64 34.138 146.325 34.1673 146.046 34.226C145.782 34.2847 145.555 34.38 145.364 34.512C145.188 34.644 145.049 34.798 144.946 34.974C144.858 35.15 144.814 35.3553 144.814 35.59C144.814 35.8393 144.88 36.0593 145.012 36.25C145.144 36.4407 145.32 36.5873 145.54 36.69C145.775 36.7927 146.039 36.844 146.332 36.844C146.757 36.844 147.161 36.7707 147.542 36.624C147.938 36.4773 148.29 36.272 148.598 36.008C148.906 35.744 149.148 35.4433 149.324 35.106L149.918 36.668C149.61 37.1667 149.236 37.6067 148.796 37.988C148.356 38.3693 147.879 38.67 147.366 38.89C146.853 39.11 146.31 39.22 145.738 39.22ZM159.745 39.22C158.63 39.22 157.633 38.956 156.753 38.428C155.873 37.9 155.176 37.1813 154.663 36.272C154.164 35.348 153.915 34.3213 153.915 33.192C153.915 32.0333 154.164 30.9993 154.663 30.09C155.176 29.166 155.873 28.44 156.753 27.912C157.633 27.384 158.63 27.12 159.745 27.12C160.786 27.12 161.732 27.318 162.583 27.714C163.448 28.0953 164.123 28.6233 164.607 29.298L162.913 31.366C162.708 31.0873 162.451 30.8307 162.143 30.596C161.835 30.3613 161.498 30.178 161.131 30.046C160.779 29.914 160.412 29.848 160.031 29.848C159.43 29.848 158.894 29.9947 158.425 30.288C157.956 30.5667 157.589 30.9627 157.325 31.476C157.061 31.9747 156.929 32.5393 156.929 33.17C156.929 33.786 157.068 34.3433 157.347 34.842C157.626 35.3407 158 35.7367 158.469 36.03C158.938 36.3233 159.459 36.47 160.031 36.47C160.412 36.47 160.772 36.4187 161.109 36.316C161.461 36.1987 161.784 36.03 162.077 35.81C162.37 35.59 162.649 35.3333 162.913 35.04L164.607 37.108C164.123 37.7387 163.434 38.252 162.539 38.648C161.659 39.0293 160.728 39.22 159.745 39.22ZM169.557 35.502L168.699 32.906L174.155 27.362H178.269L169.557 35.502ZM166.609 39V22.72H169.733V39H166.609ZM174.485 39L170.305 33.786L172.527 32.004L178.247 39H174.485ZM187.819 39V24.414H190.943V39H187.819ZM185.641 30.156V27.362H193.341V30.156H185.641ZM200.638 39.22C199.464 39.22 198.408 38.9633 197.47 38.45C196.546 37.922 195.812 37.2033 195.27 36.294C194.742 35.3847 194.478 34.3507 194.478 33.192C194.478 32.004 194.742 30.9553 195.27 30.046C195.812 29.1367 196.546 28.4253 197.47 27.912C198.408 27.384 199.464 27.12 200.638 27.12C201.826 27.12 202.882 27.384 203.806 27.912C204.73 28.4253 205.456 29.1367 205.984 30.046C206.526 30.9553 206.798 32.004 206.798 33.192C206.798 34.3507 206.526 35.3847 205.984 36.294C205.456 37.2033 204.73 37.922 203.806 38.45C202.882 38.9633 201.826 39.22 200.638 39.22ZM200.638 36.514C201.224 36.514 201.738 36.3673 202.178 36.074C202.632 35.7807 202.984 35.3847 203.234 34.886C203.498 34.3873 203.622 33.8227 203.608 33.192C203.622 32.532 203.498 31.9527 203.234 31.454C202.984 30.9407 202.632 30.5447 202.178 30.266C201.738 29.9727 201.224 29.826 200.638 29.826C200.066 29.826 199.552 29.9727 199.098 30.266C198.643 30.5593 198.284 30.9553 198.02 31.454C197.756 31.9527 197.631 32.532 197.646 33.192C197.631 33.8227 197.756 34.3873 198.02 34.886C198.284 35.3847 198.643 35.7807 199.098 36.074C199.552 36.3673 200.066 36.514 200.638 36.514ZM226.037 39V23.6H229.337V39H226.037ZM216.313 39V23.6H219.613V39H216.313ZM217.655 32.84V29.804H227.709V32.84H217.655ZM238.3 39.22C237.126 39.22 236.07 38.9633 235.132 38.45C234.208 37.922 233.474 37.2033 232.932 36.294C232.404 35.3847 232.14 34.3507 232.14 33.192C232.14 32.004 232.404 30.9553 232.932 30.046C233.474 29.1367 234.208 28.4253 235.132 27.912C236.07 27.384 237.126 27.12 238.3 27.12C239.488 27.12 240.544 27.384 241.468 27.912C242.392 28.4253 243.118 29.1367 243.646 30.046C244.188 30.9553 244.46 32.004 244.46 33.192C244.46 34.3507 244.188 35.3847 243.646 36.294C243.118 37.2033 242.392 37.922 241.468 38.45C240.544 38.9633 239.488 39.22 238.3 39.22ZM238.3 36.514C238.886 36.514 239.4 36.3673 239.84 36.074C240.294 35.7807 240.646 35.3847 240.896 34.886C241.16 34.3873 241.284 33.8227 241.27 33.192C241.284 32.532 241.16 31.9527 240.896 31.454C240.646 30.9407 240.294 30.5447 239.84 30.266C239.4 29.9727 238.886 29.826 238.3 29.826C237.728 29.826 237.214 29.9727 236.76 30.266C236.305 30.5593 235.946 30.9553 235.682 31.454C235.418 31.9527 235.293 32.532 235.308 33.192C235.293 33.8227 235.418 34.3873 235.682 34.886C235.946 35.3847 236.305 35.7807 236.76 36.074C237.214 36.3673 237.728 36.514 238.3 36.514ZM246.788 39V27.362H249.802L249.868 29.584L249.406 29.716C249.553 29.3347 249.758 28.99 250.022 28.682C250.301 28.3593 250.616 28.088 250.968 27.868C251.32 27.648 251.694 27.472 252.09 27.34C252.501 27.208 252.904 27.142 253.3 27.142C253.916 27.142 254.459 27.2373 254.928 27.428C255.412 27.6187 255.823 27.9193 256.16 28.33C256.497 28.7407 256.754 29.276 256.93 29.936L256.468 29.848L256.622 29.518C256.813 29.1807 257.055 28.8653 257.348 28.572C257.641 28.2787 257.971 28.0293 258.338 27.824C258.705 27.604 259.086 27.4353 259.482 27.318C259.878 27.2007 260.267 27.142 260.648 27.142C261.557 27.142 262.305 27.3253 262.892 27.692C263.493 28.0587 263.941 28.6013 264.234 29.32C264.542 30.024 264.696 30.904 264.696 31.96V39H261.572V32.18C261.572 31.388 261.411 30.8013 261.088 30.42C260.78 30.0387 260.303 29.848 259.658 29.848C259.321 29.848 259.005 29.9067 258.712 30.024C258.419 30.1267 258.169 30.2807 257.964 30.486C257.759 30.6913 257.597 30.926 257.48 31.19C257.363 31.454 257.304 31.7473 257.304 32.07V39H254.18V32.136C254.18 31.4027 254.011 30.838 253.674 30.442C253.351 30.046 252.882 29.848 252.266 29.848C251.943 29.848 251.635 29.9067 251.342 30.024C251.049 30.1267 250.799 30.2807 250.594 30.486C250.389 30.6767 250.227 30.9113 250.11 31.19C249.993 31.454 249.934 31.7473 249.934 32.07V39H246.788ZM273.193 39.22C271.932 39.22 270.825 38.9633 269.871 38.45C268.933 37.9367 268.199 37.2327 267.671 36.338C267.158 35.4433 266.901 34.424 266.901 33.28C266.901 32.3707 267.048 31.542 267.341 30.794C267.635 30.0313 268.045 29.3787 268.573 28.836C269.101 28.2933 269.725 27.8753 270.443 27.582C271.177 27.274 271.976 27.12 272.841 27.12C273.633 27.12 274.359 27.2667 275.019 27.56C275.694 27.8387 276.273 28.242 276.757 28.77C277.256 29.2833 277.637 29.892 277.901 30.596C278.165 31.3 278.29 32.07 278.275 32.906L278.253 33.874H268.903L268.397 31.938H275.679L275.305 32.334V31.872C275.276 31.4613 275.144 31.102 274.909 30.794C274.689 30.486 274.403 30.244 274.051 30.068C273.699 29.8773 273.311 29.782 272.885 29.782C272.225 29.782 271.668 29.914 271.213 30.178C270.773 30.4273 270.436 30.794 270.201 31.278C269.981 31.7473 269.871 32.334 269.871 33.038C269.871 33.7273 270.018 34.336 270.311 34.864C270.605 35.3773 271.023 35.7733 271.565 36.052C272.123 36.3307 272.775 36.47 273.523 36.47C274.037 36.47 274.506 36.3893 274.931 36.228C275.357 36.0667 275.819 35.788 276.317 35.392L277.791 37.482C277.381 37.8487 276.919 38.164 276.405 38.428C275.892 38.692 275.364 38.89 274.821 39.022C274.279 39.154 273.736 39.22 273.193 39.22Z" fill="white"/>
<defs>
<filter id="filter0_b_705_21867" x="-4" y="-4" width="380" height="70" filterUnits="userSpaceOnUse" color-interpolation-filters="sRGB">
<feFlood flood-opacity="0" result="BackgroundImageFix"/>
<feGaussianBlur in="BackgroundImageFix" stdDeviation="2"/>
<feComposite in2="SourceAlpha" operator="in" result="effect1_backgroundBlur_705_21867"/>
<feBlend mode="normal" in="SourceGraphic" in2="effect1_backgroundBlur_705_21867" result="shape"/>
</filter>
</defs>
</svg>

