<svg width="52" height="52" viewBox="0 0 52 52" fill="none" xmlns="http://www.w3.org/2000/svg">
<path d="M26 0C11.674 0 0 11.674 0 26C0 40.326 11.674 52 26 52C40.326 52 52 40.326 52 26C52 11.674 40.326 0 26 0ZM38.428 20.02L23.686 34.762C23.322 35.126 22.828 35.334 22.308 35.334C21.788 35.334 21.294 35.126 20.93 34.762L13.572 27.404C12.818 26.65 12.818 25.402 13.572 24.648C14.326 23.894 15.574 23.894 16.328 24.648L22.308 30.628L35.672 17.264C36.426 16.51 37.674 16.51 38.428 17.264C39.182 18.018 39.182 19.24 38.428 20.02Z" fill="#0056DD"/>
</svg>
