<svg width="240" height="240" viewBox="0 0 240 240" fill="none" xmlns="http://www.w3.org/2000/svg">
<path d="M201.175 136.342H146.457V239.478H201.175V136.342Z" fill="#EBEBEB"/>
<path d="M156.965 123.119V136.341H161.28H186.352H190.667V123.119H156.965Z" fill="#EBEBEB"/>
<path d="M156.965 139.844H149.959V146.85H156.965V139.844Z" fill="#FAFAFA"/>
<path d="M170.535 139.844H163.529V146.85H170.535V139.844Z" fill="#FAFAFA"/>
<path d="M184.104 139.844H177.098V146.85H184.104V139.844Z" fill="#FAFAFA"/>
<path d="M197.673 139.844H190.667V146.85H197.673V139.844Z" fill="#FAFAFA"/>
<path d="M156.965 152.572H149.959V159.578H156.965V152.572Z" fill="#FAFAFA"/>
<path d="M170.535 152.572H163.529V159.578H170.535V152.572Z" fill="#FAFAFA"/>
<path d="M184.104 152.572H177.098V159.578H184.104V152.572Z" fill="#FAFAFA"/>
<path d="M197.673 152.572H190.667V159.578H197.673V152.572Z" fill="#FAFAFA"/>
<path d="M156.965 165.301H149.959V172.307H156.965V165.301Z" fill="#FAFAFA"/>
<path d="M170.535 165.301H163.529V172.307H170.535V165.301Z" fill="#FAFAFA"/>
<path d="M184.104 165.301H177.098V172.307H184.104V165.301Z" fill="#FAFAFA"/>
<path d="M170.535 128.843H163.529V135.848H170.535V128.843Z" fill="#FAFAFA"/>
<path d="M184.104 128.843H177.098V135.848H184.104V128.843Z" fill="#FAFAFA"/>
<path d="M197.673 165.301H190.667V172.307H197.673V165.301Z" fill="#FAFAFA"/>
<path d="M156.965 178.03H149.959V185.036H156.965V178.03Z" fill="#FAFAFA"/>
<path d="M170.535 178.03H163.529V185.036H170.535V178.03Z" fill="#FAFAFA"/>
<path d="M184.104 178.03H177.098V185.036H184.104V178.03Z" fill="#FAFAFA"/>
<path d="M197.673 178.03H190.667V185.036H197.673V178.03Z" fill="#FAFAFA"/>
<path d="M156.965 190.759H149.959V197.764H156.965V190.759Z" fill="#FAFAFA"/>
<path d="M170.535 190.759H163.529V197.764H170.535V190.759Z" fill="#FAFAFA"/>
<path d="M184.104 190.759H177.098V197.764H184.104V190.759Z" fill="#FAFAFA"/>
<path d="M197.673 190.759H190.667V197.764H197.673V190.759Z" fill="#FAFAFA"/>
<path d="M156.965 203.487H149.959V210.492H156.965V203.487Z" fill="#FAFAFA"/>
<path d="M170.535 203.487H163.529V210.492H170.535V203.487Z" fill="#FAFAFA"/>
<path d="M184.104 203.487H177.098V210.492H184.104V203.487Z" fill="#FAFAFA"/>
<path d="M197.673 203.487H190.667V210.492H197.673V203.487Z" fill="#FAFAFA"/>
<path d="M156.965 216.216H149.959V223.221H156.965V216.216Z" fill="#FAFAFA"/>
<path d="M170.535 216.216H163.529V223.221H170.535V216.216Z" fill="#FAFAFA"/>
<path d="M184.104 216.216H177.098V223.221H184.104V216.216Z" fill="#FAFAFA"/>
<path d="M197.673 216.216H190.667V223.221H197.673V216.216Z" fill="#FAFAFA"/>
<path d="M145.327 136.413H202.304V134.984H145.327V136.413Z" fill="#F5F5F5"/>
<path d="M147.978 118.484H82.9325V239.478H147.978V118.484Z" fill="#E6E6E6"/>
<path d="M95.4235 102.765V118.483H100.553H130.358H135.487V102.765H95.4235Z" fill="#E6E6E6"/>
<path d="M81.5903 118.569L149.322 118.569V116.871L81.5903 116.871V118.569Z" fill="#F5F5F5"/>
<path d="M93.7229 102.766H137.189V101.068H93.7229V102.766Z" fill="#F5F5F5"/>
<path d="M134.416 118.484H69.3704V239.478H134.416V118.484Z" fill="#F0F0F0"/>
<path d="M81.8622 102.765V118.483H86.9907H116.796H121.925V102.765H81.8622Z" fill="#F0F0F0"/>
<path d="M81.8623 122.647H73.5343V130.975H81.8623V122.647Z" fill="white"/>
<path d="M97.9924 122.647H89.6645V130.975H97.9924V122.647Z" fill="white"/>
<path d="M114.123 122.647H105.795V130.975H114.123V122.647Z" fill="white"/>
<path d="M130.253 122.647H121.925V130.975H130.253V122.647Z" fill="white"/>
<path d="M81.8623 137.778H73.5343V146.106H81.8623V137.778Z" fill="white"/>
<path d="M97.9924 137.778H89.6645V146.106H97.9924V137.778Z" fill="white"/>
<path d="M114.123 137.778H105.795V146.106H114.123V137.778Z" fill="white"/>
<path d="M130.253 137.778H121.925V146.106H130.253V137.778Z" fill="white"/>
<path d="M81.8623 152.909H73.5343V161.237H81.8623V152.909Z" fill="white"/>
<path d="M97.9924 152.909H89.6645V161.237H97.9924V152.909Z" fill="white"/>
<path d="M114.123 152.909H105.795V161.237H114.123V152.909Z" fill="white"/>
<path d="M97.9924 109.568H89.6645V117.896H97.9924V109.568Z" fill="white"/>
<path d="M114.123 109.568H105.795V117.896H114.123V109.568Z" fill="white"/>
<path d="M130.253 152.909H121.925V161.237H130.253V152.909Z" fill="white"/>
<path d="M81.8623 168.04H73.5343V176.368H81.8623V168.04Z" fill="white"/>
<path d="M97.9924 168.04H89.6645V176.368H97.9924V168.04Z" fill="white"/>
<path d="M114.123 168.04H105.795V176.368H114.123V168.04Z" fill="white"/>
<path d="M130.253 168.04H121.925V176.368H130.253V168.04Z" fill="white"/>
<path d="M81.8623 183.171H73.5343V191.499H81.8623V183.171Z" fill="white"/>
<path d="M97.9924 183.171H89.6645V191.499H97.9924V183.171Z" fill="white"/>
<path d="M114.123 183.171H105.795V191.499H114.123V183.171Z" fill="white"/>
<path d="M130.253 183.171H121.925V191.499H130.253V183.171Z" fill="white"/>
<path d="M81.8623 198.302H73.5343V206.63H81.8623V198.302Z" fill="white"/>
<path d="M97.9924 198.302H89.6645V206.63H97.9924V198.302Z" fill="white"/>
<path d="M114.123 198.302H105.795V206.63H114.123V198.302Z" fill="white"/>
<path d="M130.253 198.302H121.925V206.63H130.253V198.302Z" fill="white"/>
<path d="M81.8623 213.433H73.5343V221.761H81.8623V213.433Z" fill="white"/>
<path d="M97.9924 213.433H89.6645V221.761H97.9924V213.433Z" fill="white"/>
<path d="M114.123 213.433H105.795V221.761H114.123V213.433Z" fill="white"/>
<path d="M130.253 213.433H121.925V221.761H130.253V213.433Z" fill="white"/>
<path d="M68.0282 118.569L135.76 118.569V116.871L68.0282 116.871V118.569Z" fill="#F5F5F5"/>
<path d="M80.1606 102.766H123.626V101.068H80.1606V102.766Z" fill="#F5F5F5"/>
<path d="M36.6346 173.287H0.223816V238.995H58.3312V173.287V147.928L36.6346 173.287Z" fill="#F5F5F5"/>
<path d="M69.1754 147.928H58.3313V238.995H69.1754V147.928Z" fill="#E6E6E6"/>
<path d="M11.5825 184.878H2.9342V193.526H11.5825V184.878Z" fill="#E0E0E0"/>
<path opacity="0.3" d="M11.5824 184.878H3.89685V193.526H11.5824V184.878Z" fill="white"/>
<path d="M11.5825 199.428H2.93414V208.076H11.5825V199.428Z" fill="#E0E0E0"/>
<path opacity="0.3" d="M11.5823 199.428H3.89679V208.076H11.5823V199.428Z" fill="white"/>
<path d="M11.5825 213.977H2.93414V222.626H11.5825V213.977Z" fill="#E0E0E0"/>
<path opacity="0.3" d="M11.5823 213.977H3.89679V222.626H11.5823V213.977Z" fill="white"/>
<path opacity="0.2" d="M12.5418 213.976H3.89685V222.621H12.5418V213.976Z" fill="white"/>
<path d="M26.1601 184.878H17.5118V193.526H26.1601V184.878Z" fill="#E0E0E0"/>
<path opacity="0.3" d="M26.16 184.878H18.4745V193.526H26.16V184.878Z" fill="white"/>
<path d="M26.16 199.428H17.5117V208.076H26.16V199.428Z" fill="#E0E0E0"/>
<path opacity="0.3" d="M26.1599 199.428H18.4744V208.076H26.1599V199.428Z" fill="white"/>
<path d="M26.16 213.977H17.5117V222.626H26.16V213.977Z" fill="#E0E0E0"/>
<path opacity="0.3" d="M26.1599 213.977H18.4744V222.626H26.1599V213.977Z" fill="white"/>
<path opacity="0.2" d="M27.1194 213.976H18.4745V222.621H27.1194V213.976Z" fill="white"/>
<path d="M40.738 184.878H32.0897V193.526H40.738V184.878Z" fill="#E0E0E0"/>
<path opacity="0.3" d="M40.7378 184.878H33.0523V193.526H40.7378V184.878Z" fill="white"/>
<path d="M40.7379 199.428H32.0896V208.076H40.7379V199.428Z" fill="#E0E0E0"/>
<path opacity="0.3" d="M40.7378 199.428H33.0523V208.076H40.7378V199.428Z" fill="white"/>
<path d="M40.7379 213.977H32.0896V222.626H40.7379V213.977Z" fill="#E0E0E0"/>
<path opacity="0.3" d="M40.7378 213.977H33.0523V222.626H40.7378V213.977Z" fill="white"/>
<path opacity="0.2" d="M41.6973 213.976H33.0523V222.621H41.6973V213.976Z" fill="white"/>
<path d="M55.3157 184.878H46.6673V193.526H55.3157V184.878Z" fill="#E0E0E0"/>
<path opacity="0.3" d="M55.3155 184.878H47.63V193.526H55.3155V184.878Z" fill="white"/>
<path d="M55.3156 199.428H46.6673V208.076H55.3156V199.428Z" fill="#E0E0E0"/>
<path opacity="0.3" d="M55.3155 199.428H47.63V208.076H55.3155V199.428Z" fill="white"/>
<path d="M55.3156 213.977H46.6673V222.626H55.3156V213.977Z" fill="#E0E0E0"/>
<path opacity="0.3" d="M55.3155 213.977H47.63V222.626H55.3155V213.977Z" fill="white"/>
<path opacity="0.2" d="M56.2749 213.976H47.63V222.621H56.2749V213.976Z" fill="white"/>
<path d="M118.233 64.6551H155.912C160.739 64.6551 161.903 57.8966 157.344 56.311C157.286 56.2905 157.227 56.2709 157.168 56.2522C162.211 52.0507 151.146 43.1919 139.129 55.4572C140.065 51.3682 129.383 52.8448 126.115 58.4257C124.954 54.7619 114.767 61.1268 118.233 64.6551Z" fill="#F0F0F0"/>
<path d="M12.7609 32.2924H76.7645C84.9638 32.2924 86.9423 20.8127 79.198 18.1186C79.0992 18.0845 79.0003 18.0504 78.8989 18.018C87.4646 10.8812 68.6692 -4.16602 48.2557 16.6675C49.8465 9.72073 31.702 12.2309 26.1501 21.7091C24.1784 15.4857 6.87322 26.2974 12.7609 32.2924Z" fill="#F0F0F0"/>
</svg>
