<svg width="358" height="262" viewBox="0 0 358 262" fill="none" xmlns="http://www.w3.org/2000/svg">
<g opacity="0.1">
<path d="M213.175 136.342H158.457V239.478H213.175V136.342Z" fill="#EBEBEB"/>
<path d="M168.965 123.119V136.341H173.28H198.352H202.667V123.119H168.965Z" fill="#EBEBEB"/>
<path d="M168.965 139.844H161.959V146.85H168.965V139.844Z" fill="#FAFAFA"/>
<path d="M182.535 139.844H175.529V146.85H182.535V139.844Z" fill="#FAFAFA"/>
<path d="M196.104 139.844H189.098V146.85H196.104V139.844Z" fill="#FAFAFA"/>
<path d="M209.673 139.844H202.667V146.85H209.673V139.844Z" fill="#FAFAFA"/>
<path d="M168.965 152.572H161.959V159.578H168.965V152.572Z" fill="#FAFAFA"/>
<path d="M182.535 152.572H175.529V159.578H182.535V152.572Z" fill="#FAFAFA"/>
<path d="M196.104 152.572H189.098V159.578H196.104V152.572Z" fill="#FAFAFA"/>
<path d="M209.673 152.572H202.667V159.578H209.673V152.572Z" fill="#FAFAFA"/>
<path d="M168.965 165.301H161.959V172.307H168.965V165.301Z" fill="#FAFAFA"/>
<path d="M182.535 165.301H175.529V172.307H182.535V165.301Z" fill="#FAFAFA"/>
<path d="M196.104 165.301H189.098V172.307H196.104V165.301Z" fill="#FAFAFA"/>
<path d="M182.535 128.843H175.529V135.848H182.535V128.843Z" fill="#FAFAFA"/>
<path d="M196.104 128.843H189.098V135.848H196.104V128.843Z" fill="#FAFAFA"/>
<path d="M209.673 165.301H202.667V172.307H209.673V165.301Z" fill="#FAFAFA"/>
<path d="M168.965 178.03H161.959V185.036H168.965V178.03Z" fill="#FAFAFA"/>
<path d="M182.535 178.03H175.529V185.036H182.535V178.03Z" fill="#FAFAFA"/>
<path d="M196.104 178.03H189.098V185.036H196.104V178.03Z" fill="#FAFAFA"/>
<path d="M209.673 178.03H202.667V185.036H209.673V178.03Z" fill="#FAFAFA"/>
<path d="M168.965 190.759H161.959V197.764H168.965V190.759Z" fill="#FAFAFA"/>
<path d="M182.535 190.759H175.529V197.764H182.535V190.759Z" fill="#FAFAFA"/>
<path d="M196.104 190.759H189.098V197.764H196.104V190.759Z" fill="#FAFAFA"/>
<path d="M209.673 190.759H202.667V197.764H209.673V190.759Z" fill="#FAFAFA"/>
<path d="M168.965 203.487H161.959V210.492H168.965V203.487Z" fill="#FAFAFA"/>
<path d="M182.535 203.487H175.529V210.492H182.535V203.487Z" fill="#FAFAFA"/>
<path d="M196.104 203.487H189.098V210.492H196.104V203.487Z" fill="#FAFAFA"/>
<path d="M209.673 203.487H202.667V210.492H209.673V203.487Z" fill="#FAFAFA"/>
<path d="M168.965 216.216H161.959V223.221H168.965V216.216Z" fill="#FAFAFA"/>
<path d="M182.535 216.216H175.529V223.221H182.535V216.216Z" fill="#FAFAFA"/>
<path d="M196.104 216.216H189.098V223.221H196.104V216.216Z" fill="#FAFAFA"/>
<path d="M209.673 216.216H202.667V223.221H209.673V216.216Z" fill="#FAFAFA"/>
<path d="M157.327 136.413H214.305V134.984H157.327V136.413Z" fill="#F5F5F5"/>
<path d="M159.978 118.484H94.9326V239.478H159.978V118.484Z" fill="#E6E6E6"/>
<path d="M107.424 102.765V118.483H112.553H142.358H147.487V102.765H107.424Z" fill="#E6E6E6"/>
<path d="M93.5903 118.569L161.322 118.569V116.871L93.5903 116.871V118.569Z" fill="#F5F5F5"/>
<path d="M105.723 102.766H149.189V101.068H105.723V102.766Z" fill="#F5F5F5"/>
<path d="M146.416 118.484H81.3704V239.478H146.416V118.484Z" fill="#F0F0F0"/>
<path d="M93.8623 102.765V118.483H98.9908H128.796H133.925V102.765H93.8623Z" fill="#F0F0F0"/>
<path d="M93.8624 122.647H85.5344V130.975H93.8624V122.647Z" fill="white"/>
<path d="M109.992 122.647H101.665V130.975H109.992V122.647Z" fill="white"/>
<path d="M126.123 122.647H117.795V130.975H126.123V122.647Z" fill="white"/>
<path d="M142.253 122.647H133.925V130.975H142.253V122.647Z" fill="white"/>
<path d="M93.8624 137.778H85.5344V146.106H93.8624V137.778Z" fill="white"/>
<path d="M109.992 137.778H101.665V146.106H109.992V137.778Z" fill="white"/>
<path d="M126.123 137.778H117.795V146.106H126.123V137.778Z" fill="white"/>
<path d="M142.253 137.778H133.925V146.106H142.253V137.778Z" fill="white"/>
<path d="M93.8624 152.909H85.5344V161.237H93.8624V152.909Z" fill="white"/>
<path d="M109.992 152.909H101.665V161.237H109.992V152.909Z" fill="white"/>
<path d="M126.123 152.909H117.795V161.237H126.123V152.909Z" fill="white"/>
<path d="M109.992 109.568H101.665V117.896H109.992V109.568Z" fill="white"/>
<path d="M126.123 109.568H117.795V117.896H126.123V109.568Z" fill="white"/>
<path d="M142.253 152.909H133.925V161.237H142.253V152.909Z" fill="white"/>
<path d="M93.8624 168.04H85.5344V176.368H93.8624V168.04Z" fill="white"/>
<path d="M109.992 168.04H101.665V176.368H109.992V168.04Z" fill="white"/>
<path d="M126.123 168.04H117.795V176.368H126.123V168.04Z" fill="white"/>
<path d="M142.253 168.04H133.925V176.368H142.253V168.04Z" fill="white"/>
<path d="M93.8624 183.171H85.5344V191.499H93.8624V183.171Z" fill="white"/>
<path d="M109.992 183.171H101.665V191.499H109.992V183.171Z" fill="white"/>
<path d="M126.123 183.171H117.795V191.499H126.123V183.171Z" fill="white"/>
<path d="M142.253 183.171H133.925V191.499H142.253V183.171Z" fill="white"/>
<path d="M93.8624 198.302H85.5344V206.63H93.8624V198.302Z" fill="white"/>
<path d="M109.992 198.302H101.665V206.63H109.992V198.302Z" fill="white"/>
<path d="M126.123 198.302H117.795V206.63H126.123V198.302Z" fill="white"/>
<path d="M142.253 198.302H133.925V206.63H142.253V198.302Z" fill="white"/>
<path d="M93.8624 213.433H85.5344V221.761H93.8624V213.433Z" fill="white"/>
<path d="M109.992 213.433H101.665V221.761H109.992V213.433Z" fill="white"/>
<path d="M126.123 213.433H117.795V221.761H126.123V213.433Z" fill="white"/>
<path d="M142.253 213.433H133.925V221.761H142.253V213.433Z" fill="white"/>
<path d="M80.0283 118.569L147.76 118.569V116.871L80.0283 116.871V118.569Z" fill="#F5F5F5"/>
<path d="M92.1606 102.766H135.626V101.068H92.1606V102.766Z" fill="#F5F5F5"/>
<path d="M48.6346 173.287H12.2239V238.995H70.3313V173.287V147.928L48.6346 173.287Z" fill="#F5F5F5"/>
<path d="M81.1754 147.928H70.3314V238.995H81.1754V147.928Z" fill="#E6E6E6"/>
<path d="M23.5826 184.878H14.9342V193.526H23.5826V184.878Z" fill="#E0E0E0"/>
<path opacity="0.3" d="M23.5824 184.878H15.8969V193.526H23.5824V184.878Z" fill="white"/>
<path d="M23.5825 199.428H14.9342V208.076H23.5825V199.428Z" fill="#E0E0E0"/>
<path opacity="0.3" d="M23.5823 199.428H15.8968V208.076H23.5823V199.428Z" fill="white"/>
<path d="M23.5825 213.977H14.9342V222.626H23.5825V213.977Z" fill="#E0E0E0"/>
<path opacity="0.3" d="M23.5823 213.977H15.8968V222.626H23.5823V213.977Z" fill="white"/>
<path opacity="0.2" d="M24.5418 213.976H15.8969V222.621H24.5418V213.976Z" fill="white"/>
<path d="M38.1602 184.878H29.5118V193.526H38.1602V184.878Z" fill="#E0E0E0"/>
<path opacity="0.3" d="M38.16 184.878H30.4745V193.526H38.16V184.878Z" fill="white"/>
<path d="M38.1601 199.428H29.5118V208.076H38.1601V199.428Z" fill="#E0E0E0"/>
<path opacity="0.3" d="M38.16 199.428H30.4745V208.076H38.16V199.428Z" fill="white"/>
<path d="M38.1601 213.977H29.5118V222.626H38.1601V213.977Z" fill="#E0E0E0"/>
<path opacity="0.3" d="M38.16 213.977H30.4745V222.626H38.16V213.977Z" fill="white"/>
<path opacity="0.2" d="M39.1194 213.976H30.4745V222.621H39.1194V213.976Z" fill="white"/>
<path d="M52.738 184.878H44.0897V193.526H52.738V184.878Z" fill="#E0E0E0"/>
<path opacity="0.3" d="M52.7379 184.878H45.0524V193.526H52.7379V184.878Z" fill="white"/>
<path d="M52.738 199.428H44.0897V208.076H52.738V199.428Z" fill="#E0E0E0"/>
<path opacity="0.3" d="M52.7378 199.428H45.0523V208.076H52.7378V199.428Z" fill="white"/>
<path d="M52.738 213.977H44.0897V222.626H52.738V213.977Z" fill="#E0E0E0"/>
<path opacity="0.3" d="M52.7378 213.977H45.0523V222.626H52.7378V213.977Z" fill="white"/>
<path opacity="0.2" d="M53.6973 213.976H45.0524V222.621H53.6973V213.976Z" fill="white"/>
<path d="M67.3157 184.878H58.6674V193.526H67.3157V184.878Z" fill="#E0E0E0"/>
<path opacity="0.3" d="M67.3156 184.878H59.6301V193.526H67.3156V184.878Z" fill="white"/>
<path d="M67.3157 199.428H58.6673V208.076H67.3157V199.428Z" fill="#E0E0E0"/>
<path opacity="0.3" d="M67.3155 199.428H59.63V208.076H67.3155V199.428Z" fill="white"/>
<path d="M67.3157 213.977H58.6673V222.626H67.3157V213.977Z" fill="#E0E0E0"/>
<path opacity="0.3" d="M67.3155 213.977H59.63V222.626H67.3155V213.977Z" fill="white"/>
<path opacity="0.2" d="M68.275 213.976H59.6301V222.621H68.275V213.976Z" fill="white"/>
<path d="M259.898 31.1115L282.594 30.8499C283.398 30.8406 284.187 31.0663 284.864 31.5C292.039 38.3292 300.31 34.3808 303.981 31.9925C305.381 31.0817 307.001 30.5688 308.67 30.5492L333.956 30.2577C343.443 30.1487 345.579 16.8388 336.583 13.8251C336.469 13.7867 336.353 13.7492 336.236 13.7126C346.052 5.34033 324.104 -11.82 300.761 12.5589C302.51 4.50021 281.547 7.64599 275.25 18.6877C272.885 11.5126 253.006 24.2542 259.898 31.1115Z" fill="#F0F0F0"/>
<path d="M130.233 64.6551H167.912C172.739 64.6551 173.903 57.8966 169.344 56.311C169.286 56.2905 169.227 56.2709 169.168 56.2522C174.211 52.0507 163.146 43.1919 151.129 55.4572C152.065 51.3682 141.383 52.8448 138.115 58.4257C136.954 54.7619 126.767 61.1268 130.233 64.6551Z" fill="#F0F0F0"/>
<path d="M24.7609 32.2924H88.7645C96.9638 32.2924 98.9423 20.8127 91.198 18.1186C91.0992 18.0845 91.0003 18.0504 90.8989 18.018C99.4646 10.8812 80.6692 -4.16602 60.2557 16.6675C61.8465 9.72073 43.702 12.2309 38.1501 21.7091C36.1784 15.4857 18.8732 26.2974 24.7609 32.2924Z" fill="#F0F0F0"/>
<path d="M201.036 162.291H146.767V245.682H201.036V162.291Z" fill="#37474F"/>
<path opacity="0.6" d="M191.871 162.282H146.767V245.681H191.871V162.282Z" fill="white"/>
<path opacity="0.3" d="M201.036 162.282H191.871V245.681H201.036V162.282Z" fill="white"/>
<path d="M160.485 166.526H150.641V176.369H160.485V166.526Z" fill="#37474F"/>
<path d="M174.242 166.526H164.398V176.369H174.242V166.526Z" fill="#37474F"/>
<path d="M187.999 166.526H178.155V176.369H187.999V166.526Z" fill="#37474F"/>
<path d="M160.485 179.348H150.641V189.192H160.485V179.348Z" fill="#37474F"/>
<path d="M174.242 179.348H164.398V189.192H174.242V179.348Z" fill="#37474F"/>
<path d="M187.999 179.348H178.155V189.192H187.999V179.348Z" fill="#37474F"/>
<path d="M160.485 192.172H150.641V202.015H160.485V192.172Z" fill="#37474F"/>
<path d="M174.242 192.172H164.398V202.015H174.242V192.172Z" fill="#37474F"/>
<path d="M187.999 192.172H178.155V202.015H187.999V192.172Z" fill="#37474F"/>
<path d="M160.485 204.994H150.641V214.838H160.485V204.994Z" fill="#37474F"/>
<path d="M174.242 204.994H164.398V214.838H174.242V204.994Z" fill="#37474F"/>
<path d="M187.999 204.994H178.155V214.838H187.999V204.994Z" fill="#37474F"/>
<path d="M160.485 217.817H150.641V227.661H160.485V217.817Z" fill="#37474F"/>
<path d="M174.242 217.817H164.398V227.661H174.242V217.817Z" fill="#37474F"/>
<path d="M187.999 217.817H178.155V227.661H187.999V217.817Z" fill="#37474F"/>
<path d="M160.485 234.049H150.641V245.682H160.485V234.049Z" fill="#37474F"/>
<path d="M174.242 230.641H164.398V245.682H174.242V230.641Z" fill="#37474F"/>
<path d="M187.999 234.049H178.155V245.682H187.999V234.049Z" fill="#37474F"/>
<path opacity="0.4" d="M160.484 166.526H151.456V176.369H160.484V166.526Z" fill="white"/>
<path opacity="0.4" d="M174.241 166.526H165.212V176.369H174.241V166.526Z" fill="white"/>
<path opacity="0.4" d="M187.998 166.526H178.969V176.369H187.998V166.526Z" fill="white"/>
<path opacity="0.4" d="M160.484 179.348H151.456V189.192H160.484V179.348Z" fill="white"/>
<path opacity="0.4" d="M174.241 179.348H165.212V189.192H174.241V179.348Z" fill="white"/>
<path opacity="0.4" d="M187.998 179.348H178.969V189.192H187.998V179.348Z" fill="white"/>
<path opacity="0.4" d="M160.484 192.172H151.456V202.015H160.484V192.172Z" fill="white"/>
<path opacity="0.4" d="M174.241 192.172H165.212V202.015H174.241V192.172Z" fill="white"/>
<path opacity="0.4" d="M187.998 192.172H178.969V202.015H187.998V192.172Z" fill="white"/>
<path opacity="0.4" d="M160.484 204.994H151.456V214.838H160.484V204.994Z" fill="white"/>
<path opacity="0.4" d="M174.241 204.994H165.212V214.838H174.241V204.994Z" fill="white"/>
<path opacity="0.4" d="M187.998 204.994H178.969V214.838H187.998V204.994Z" fill="white"/>
<path opacity="0.4" d="M160.484 217.817H151.456V227.661H160.484V217.817Z" fill="white"/>
<path opacity="0.4" d="M174.241 217.817H165.212V227.661H174.241V217.817Z" fill="white"/>
<path opacity="0.4" d="M187.998 217.817H178.969V227.661H187.998V217.817Z" fill="white"/>
<path opacity="0.4" d="M160.484 234.049H151.456V245.682H160.484V234.049Z" fill="white"/>
<path opacity="0.4" d="M174.241 230.641H165.212V245.682H174.241V230.641Z" fill="white"/>
<path opacity="0.4" d="M187.998 234.049H178.969V245.682H187.998V234.049Z" fill="white"/>
<path d="M143.471 158.679H210.34L208.348 162.909H145.463L143.471 158.679Z" fill="#37474F"/>
<path opacity="0.2" d="M192.858 158.679H210.34L208.348 162.909H191.907L192.858 158.679Z" fill="black"/>
<path d="M342.912 112.401H288.139V245.682H342.912V112.401Z" fill="#37474F"/>
<path opacity="0.4" d="M329.805 112.401H288.139V245.682H329.805V112.401Z" fill="white"/>
<path d="M345.476 108.457H285.564V112.712H345.476V108.457Z" fill="#37474F"/>
<path opacity="0.2" d="M345.476 108.457H329.812V112.712H345.476V108.457Z" fill="black"/>
<path opacity="0.3" d="M342.919 112.713H329.812V245.682H342.919V112.713Z" fill="white"/>
<path d="M300.807 117.718H293.73V128.442H300.807V117.718Z" fill="#37474F"/>
<path opacity="0.2" d="M300.807 118.431H293.73V128.443H300.807V118.431Z" fill="white"/>
<path d="M294.744 117.718H293.73V128.442H294.744V117.718Z" fill="#37474F"/>
<path d="M311.96 117.718H304.883V128.442H311.96V117.718Z" fill="#37474F"/>
<path opacity="0.2" d="M311.96 118.431H304.883V128.443H311.96V118.431Z" fill="white"/>
<path d="M305.898 117.718H304.883V128.442H305.898V117.718Z" fill="#37474F"/>
<path d="M323.113 117.718H316.036V128.442H323.113V117.718Z" fill="#37474F"/>
<path opacity="0.2" d="M323.113 118.431H316.036V128.443H323.113V118.431Z" fill="white"/>
<path d="M317.051 117.718H316.036V128.442H317.051V117.718Z" fill="#37474F"/>
<path d="M300.807 133.871H293.73V144.595H300.807V133.871Z" fill="#37474F"/>
<path opacity="0.2" d="M300.807 134.583H293.729V144.596H300.807V134.583Z" fill="white"/>
<path d="M294.744 133.871H293.73V144.595H294.744V133.871Z" fill="#37474F"/>
<path d="M311.96 133.871H304.883V144.595H311.96V133.871Z" fill="#37474F"/>
<path opacity="0.2" d="M311.96 134.583H304.883V144.596H311.96V134.583Z" fill="white"/>
<path d="M305.898 133.871H304.883V144.595H305.898V133.871Z" fill="#37474F"/>
<path d="M323.113 133.871H316.036V144.595H323.113V133.871Z" fill="#37474F"/>
<path opacity="0.2" d="M323.113 134.583H316.036V144.596H323.113V134.583Z" fill="white"/>
<path d="M317.051 133.871H316.036V144.595H317.051V133.871Z" fill="#37474F"/>
<path d="M300.807 150.023H293.73V160.747H300.807V150.023Z" fill="#37474F"/>
<path opacity="0.2" d="M300.807 150.735H293.729V160.748H300.807V150.735Z" fill="white"/>
<path d="M294.744 150.023H293.73V160.747H294.744V150.023Z" fill="#37474F"/>
<path d="M311.96 150.023H304.883V160.747H311.96V150.023Z" fill="#37474F"/>
<path opacity="0.2" d="M311.96 150.735H304.883V160.748H311.96V150.735Z" fill="white"/>
<path d="M305.898 150.023H304.883V160.747H305.898V150.023Z" fill="#37474F"/>
<path d="M323.113 150.023H316.036V160.747H323.113V150.023Z" fill="#37474F"/>
<path opacity="0.2" d="M323.113 150.735H316.036V160.748H323.113V150.735Z" fill="white"/>
<path d="M317.051 150.023H316.036V160.747H317.051V150.023Z" fill="#37474F"/>
<path d="M300.807 166.175H293.73V176.899H300.807V166.175Z" fill="#37474F"/>
<path opacity="0.2" d="M300.807 166.888H293.729V176.9H300.807V166.888Z" fill="white"/>
<path d="M294.744 166.175H293.73V176.899H294.744V166.175Z" fill="#37474F"/>
<path d="M311.96 166.175H304.883V176.899H311.96V166.175Z" fill="#37474F"/>
<path opacity="0.2" d="M311.96 166.888H304.883V176.9H311.96V166.888Z" fill="white"/>
<path d="M305.898 166.175H304.883V176.899H305.898V166.175Z" fill="#37474F"/>
<path d="M323.113 166.175H316.036V176.899H323.113V166.175Z" fill="#37474F"/>
<path opacity="0.2" d="M323.113 166.888H316.036V176.9H323.113V166.888Z" fill="white"/>
<path d="M317.051 166.175H316.036V176.899H317.051V166.175Z" fill="#37474F"/>
<path d="M300.807 182.328H293.73V193.052H300.807V182.328Z" fill="#37474F"/>
<path opacity="0.2" d="M300.807 183.04H293.729V193.053H300.807V183.04Z" fill="white"/>
<path d="M294.744 182.328H293.73V193.052H294.744V182.328Z" fill="#37474F"/>
<path d="M311.96 182.328H304.883V193.052H311.96V182.328Z" fill="#37474F"/>
<path opacity="0.2" d="M311.96 183.04H304.883V193.053H311.96V183.04Z" fill="white"/>
<path d="M305.898 182.328H304.883V193.052H305.898V182.328Z" fill="#37474F"/>
<path d="M323.113 182.328H316.036V193.052H323.113V182.328Z" fill="#37474F"/>
<path opacity="0.2" d="M323.113 183.04H316.036V193.053H323.113V183.04Z" fill="white"/>
<path d="M317.051 182.328H316.036V193.052H317.051V182.328Z" fill="#37474F"/>
<path d="M300.807 198.481H293.73V209.205H300.807V198.481Z" fill="#37474F"/>
<path opacity="0.2" d="M300.807 199.192H293.729V209.205H300.807V199.192Z" fill="white"/>
<path d="M294.744 198.481H293.73V209.205H294.744V198.481Z" fill="#37474F"/>
<path d="M311.96 198.481H304.883V209.205H311.96V198.481Z" fill="#37474F"/>
<path opacity="0.2" d="M311.96 199.192H304.883V209.205H311.96V199.192Z" fill="white"/>
<path d="M305.898 198.481H304.883V209.205H305.898V198.481Z" fill="#37474F"/>
<path d="M323.113 198.481H316.036V209.205H323.113V198.481Z" fill="#37474F"/>
<path opacity="0.2" d="M323.113 199.192H316.036V209.205H323.113V199.192Z" fill="white"/>
<path d="M317.051 198.481H316.036V209.205H317.051V198.481Z" fill="#37474F"/>
<path d="M300.807 214.633H293.73V225.357H300.807V214.633Z" fill="#37474F"/>
<path opacity="0.2" d="M300.807 215.345H293.729V225.357H300.807V215.345Z" fill="white"/>
<path d="M294.744 214.633H293.73V225.357H294.744V214.633Z" fill="#37474F"/>
<path d="M311.96 214.633H304.883V225.357H311.96V214.633Z" fill="#37474F"/>
<path opacity="0.2" d="M311.96 215.345H304.883V225.357H311.96V215.345Z" fill="white"/>
<path d="M305.898 214.633H304.883V225.357H305.898V214.633Z" fill="#37474F"/>
<path d="M323.113 214.633H316.036V225.357H323.113V214.633Z" fill="#37474F"/>
<path opacity="0.2" d="M323.113 215.345H316.036V225.357H323.113V215.345Z" fill="white"/>
<path d="M317.051 214.633H316.036V225.357H317.051V214.633Z" fill="#37474F"/>
<path d="M300.807 230.786H293.73V241.51H300.807V230.786Z" fill="#37474F"/>
<path opacity="0.2" d="M300.807 231.497H293.729V241.51H300.807V231.497Z" fill="white"/>
<path d="M294.744 230.786H293.73V241.51H294.744V230.786Z" fill="#37474F"/>
<path d="M311.96 230.786H304.883V241.51H311.96V230.786Z" fill="#37474F"/>
<path opacity="0.2" d="M311.96 231.497H304.883V241.51H311.96V231.497Z" fill="white"/>
<path d="M305.898 230.786H304.883V241.51H305.898V230.786Z" fill="#37474F"/>
<path d="M323.113 230.786H316.036V241.51H323.113V230.786Z" fill="#37474F"/>
<path opacity="0.2" d="M323.113 231.497H316.036V241.51H323.113V231.497Z" fill="white"/>
<path d="M317.051 230.786H316.036V241.51H317.051V230.786Z" fill="#37474F"/>
<path d="M227.455 36.8228H226.24V63.0677H227.455V36.8228Z" fill="#263238"/>
<path d="M253.936 36.8228H252.721V63.0677H253.936V36.8228Z" fill="#263238"/>
<path d="M276.854 48.7771H235.689V70.5291H276.854V48.7771Z" fill="#37474F"/>
<path opacity="0.7" d="M276.854 48.7771H235.689V70.5291H276.854V48.7771Z" fill="white"/>
<path d="M253.047 48.7771H211.882V70.5291H253.047V48.7771Z" fill="#37474F"/>
<path opacity="0.4" d="M253.047 48.7771H211.882V70.5291H253.047V48.7771Z" fill="white"/>
<path opacity="0.5" d="M207.973 82.1963H205.91V90.7134H207.973V82.1963Z" fill="white"/>
<path opacity="0.5" d="M207.973 104.195H205.91V112.713H207.973V104.195Z" fill="white"/>
<path opacity="0.5" d="M207.973 119.094H205.91V127.612H207.973V119.094Z" fill="white"/>
<path opacity="0.5" d="M207.973 133.993H205.91V142.51H207.973V133.993Z" fill="white"/>
<path opacity="0.5" d="M207.973 148.884H205.91V157.401H207.973V148.884Z" fill="white"/>
<path opacity="0.5" d="M207.973 163.782H205.91V172.299H207.973V163.782Z" fill="white"/>
<path opacity="0.5" d="M207.973 180.2H205.91V188.717H207.973V180.2Z" fill="white"/>
<path opacity="0.5" d="M207.973 196.619H205.91V205.136H207.973V196.619Z" fill="white"/>
<path opacity="0.5" d="M207.973 213.029H205.91V221.546H207.973V213.029Z" fill="white"/>
<path opacity="0.5" d="M207.973 229.447H205.91V237.964H207.973V229.447Z" fill="white"/>
<path d="M288.433 70.8478H224.111V245.681H288.433V70.8478Z" fill="#37474F"/>
<path d="M264.617 70.8478H200.296V245.681H264.617V70.8478Z" fill="#37474F"/>
<path opacity="0.3" d="M288.432 73.2472H264.625V245.682H288.432V73.2472Z" fill="white"/>
<path opacity="0.5" d="M264.617 70.8478H200.296V245.681H264.617V70.8478Z" fill="white"/>
<path d="M258.524 78.4933H250.635V241.51H258.524V78.4933Z" fill="#37474F"/>
<path d="M243.315 78.4933H235.426V241.51H243.315V78.4933Z" fill="#37474F"/>
<path d="M228.116 78.4933H220.227V241.51H228.116V78.4933Z" fill="#37474F"/>
<path d="M212.908 78.4933H205.018V241.51H212.908V78.4933Z" fill="#37474F"/>
<path opacity="0.2" d="M258.524 80.557H250.635V241.51H258.524V80.557Z" fill="white"/>
<path opacity="0.2" d="M243.315 80.557H235.426V241.51H243.315V80.557Z" fill="white"/>
<path opacity="0.2" d="M228.116 80.557H220.227V241.51H228.116V80.557Z" fill="white"/>
<path opacity="0.2" d="M212.907 80.557H205.018V241.51H212.907V80.557Z" fill="white"/>
<path d="M285.69 78.4933H282.38V241.51H285.69V78.4933Z" fill="#37474F"/>
<path d="M279.313 78.4933H276.004V241.51H279.313V78.4933Z" fill="#37474F"/>
<path d="M272.934 78.4933H269.624V241.51H272.934V78.4933Z" fill="#37474F"/>
<g opacity="0.3">
<path opacity="0.4" d="M285.69 80.557H282.38V241.51H285.69V80.557Z" fill="white"/>
<path opacity="0.4" d="M279.313 80.557H276.004V241.51H279.313V80.557Z" fill="white"/>
<path opacity="0.4" d="M272.934 80.557H269.624V241.51H272.934V80.557Z" fill="white"/>
</g>
<path d="M287.057 65.8812H264.625V69.1599H287.057V65.8812Z" fill="#37474F"/>
<path d="M287.057 65.082H200.296V69.1607H287.057V65.082Z" fill="#F0F0F0"/>
<path d="M290.103 69.1684H198.48V73.2472H290.103V69.1684Z" fill="#37474F"/>
<path d="M290.103 61.8033H198.48V65.8821H290.103V61.8033Z" fill="#37474F"/>
<path opacity="0.1" d="M290.103 69.1684H198.48V73.2472H290.103V69.1684Z" fill="black"/>
<path opacity="0.1" d="M290.103 61.8033H198.48V65.8821H290.103V61.8033Z" fill="black"/>
<path opacity="0.2" d="M290.104 69.1684H264.625V73.2472H290.104V69.1684Z" fill="black"/>
<path opacity="0.2" d="M290.104 61.8033H264.625V65.8821H290.104V61.8033Z" fill="black"/>
<path opacity="0.3" d="M237.401 48.7771H227.565V58.614H237.401V48.7771Z" fill="white"/>
<path d="M128.379 127.607C120.031 117.764 109.562 114.393 101.886 118.069C99.6192 119.155 97.0272 118.613 95.2533 116.693C85.9625 106.633 70.9076 105.438 64.6603 114.93C63.9642 115.988 63.3695 117.129 62.8719 118.337C62.0641 120.299 60.7963 121.996 59.1825 123.178C58.1183 123.957 57.1606 124.965 56.3434 126.207C54.3616 129.219 53.5018 133.154 53.6561 137.38C53.7012 138.618 53.1125 139.8 52.1053 140.308C50.4524 141.141 48.9877 142.443 47.8144 144.227C42.7566 151.912 44.989 165.611 52.8006 174.823C59.761 183.032 68.8013 184.909 74.2672 179.784C74.7469 179.334 75.4294 179.32 75.9176 179.759C79.8516 183.293 84.4203 183.321 86.7975 179.482C87.2414 178.763 88.1497 178.635 88.7308 179.218C92.7849 183.284 97.6901 183.509 100.184 179.482C100.625 178.77 100.962 177.967 101.201 177.1C101.42 176.306 102.166 175.869 102.864 176.15C105.517 177.216 108.12 176.754 109.89 174.66C110.275 174.205 110.89 174.099 111.383 174.394C120.48 179.832 130.064 178.786 135.399 170.679C142.519 159.862 139.376 140.577 128.379 127.607Z" fill="#37474F"/>
<path opacity="0.6" d="M128.379 127.607C120.031 117.764 109.562 114.393 101.886 118.069C99.6192 119.155 97.0272 118.613 95.2533 116.693C85.9625 106.633 70.9076 105.438 64.6603 114.93C63.9642 115.988 63.3695 117.129 62.8719 118.337C62.0641 120.299 60.7963 121.996 59.1825 123.178C58.1183 123.957 57.1606 124.965 56.3434 126.207C54.3616 129.219 53.5018 133.154 53.6561 137.38C53.7012 138.618 53.1125 139.8 52.1053 140.308C50.4524 141.141 48.9877 142.443 47.8144 144.227C42.7566 151.912 44.989 165.611 52.8006 174.823C59.761 183.032 68.8013 184.909 74.2672 179.784C74.7469 179.334 75.4294 179.32 75.9176 179.759C79.8516 183.293 84.4203 183.321 86.7975 179.482C87.2414 178.763 88.1497 178.635 88.7308 179.218C92.7849 183.284 97.6901 183.509 100.184 179.482C100.625 178.77 100.962 177.967 101.201 177.1C101.42 176.306 102.166 175.869 102.864 176.15C105.517 177.216 108.12 176.754 109.89 174.66C110.275 174.205 110.89 174.099 111.383 174.394C120.48 179.832 130.064 178.786 135.399 170.679C142.519 159.862 139.376 140.577 128.379 127.607Z" fill="white"/>
<path d="M72.7669 184.27L80.6807 192.02C80.0476 202.952 79.5296 228.127 79.5296 228.127L76.7136 245.729L101.524 245.97C101.524 245.97 100.396 231.105 100.396 230.298C100.396 229.491 95.6027 201.013 95.6027 201.013L93.9097 185.063L106.7 180.953L109.037 173.843L118.438 168.236L123.034 160.801L121.258 160.347L116.184 167.216L110.263 168.57L112.798 162.243H109.978L102.93 176.899L93.8492 178.862L95.0352 158.283C87.7723 161.861 85.4479 155.903 85.4479 155.903C85.4479 155.903 82.4504 183.602 81.3939 186.756L76.711 184.27L71.6328 175.823H69.3782L72.7669 184.27Z" fill="#37474F"/>
<path d="M36.4692 218.647H35.2142V234.747H36.4692V218.647Z" fill="#37474F"/>
<path opacity="0.2" d="M36.4692 218.647H35.2142V234.747H36.4692V218.647Z" fill="black"/>
<path d="M62.4296 218.647H61.1745V234.747H62.4296V218.647Z" fill="#37474F"/>
<path opacity="0.2" d="M62.4296 218.647H61.1745V234.747H62.4296V218.647Z" fill="black"/>
<path d="M63.8585 233.178H33.845V235.135H63.8585V233.178Z" fill="#37474F"/>
<path opacity="0.2" d="M63.8585 233.178H33.845V235.135H63.8585V233.178Z" fill="white"/>
<path d="M35.8412 235.081H34.5862V245.98H35.8412V235.081Z" fill="#37474F"/>
<path opacity="0.2" d="M35.8412 235.081H34.5862V245.98H35.8412V235.081Z" fill="black"/>
<path d="M63.2296 235.081H61.9745V245.98H63.2296V235.081Z" fill="#37474F"/>
<path opacity="0.2" d="M63.2296 235.081H61.9745V245.98H63.2296V235.081Z" fill="black"/>
<path d="M63.8585 219.373H33.845V228.851H63.8585V219.373Z" fill="#37474F"/>
<path opacity="0.2" d="M63.8585 219.373H33.845V228.851H63.8585V219.373Z" fill="white"/>
<path d="M63.7928 234.747H33.8841V237.797H63.7928V234.747Z" fill="#37474F"/>
<path opacity="0.1" d="M63.7928 234.747H33.8841V237.797H63.7928V234.747Z" fill="black"/>
<path d="M33.8841 230.409H32.629V245.959H33.8841V230.409Z" fill="#37474F"/>
<path d="M34.363 228.85H32.186V231.027H34.363V228.85Z" fill="#37474F"/>
<path opacity="0.2" d="M34.363 228.85H32.186V231.027H34.363V228.85Z" fill="white"/>
<path d="M36.0704 228.85H34.3629V231.027H36.0704V228.85Z" fill="#37474F"/>
<path d="M63.7936 245.96H65.0487V230.41H63.7936V245.96Z" fill="#37474F"/>
<path d="M63.3154 231.027H65.4924V228.85H63.3154V231.027Z" fill="#37474F"/>
<path opacity="0.2" d="M63.3154 231.027H65.4924V228.85H63.3154V231.027Z" fill="white"/>
<path d="M63.3158 228.85H61.6082V231.027H63.3158V228.85Z" fill="#37474F"/>
<path opacity="0.1" d="M36.0705 228.85H34.3629V231.027H36.0705V228.85Z" fill="black"/>
<path opacity="0.1" d="M63.3158 228.85H61.6082V231.027H63.3158V228.85Z" fill="black"/>
<path d="M33.837 109.914H32.7379V114.723H33.837V109.914Z" fill="#263238"/>
<path d="M41.2771 107.914C34.4948 108.791 24.1568 111.05 16.0692 115.299V116.91C16.0692 116.91 27.2447 110.414 41.3283 109.249L41.2771 107.914Z" fill="#37474F"/>
<path d="M53.1131 110.308C52.7126 109.967 52.2184 109.618 51.6816 109.388C50.5143 108.885 43.4508 109.942 41.031 110.325V109.294L40.9713 107.956C42.6158 107.786 44.0898 107.667 45.3338 107.59C47.3702 107.479 48.8784 107.411 49.9945 107.377C51.6731 107.317 53.0705 108.638 53.1131 110.308Z" fill="#37474F"/>
<path d="M16.0658 126.63C15.5954 126.63 15.2171 126.21 15.2171 125.74C15.2171 125.306 15.2171 124.404 19.7509 120.304C20.2783 119.828 20.9838 119.212 21.7762 118.671C27.8002 114.559 35.1969 113.535 35.5087 113.493C35.9748 113.433 36.4034 113.758 36.4656 114.224C36.5278 114.69 36.2006 115.119 35.7345 115.182C35.6621 115.191 28.418 116.2 22.7373 120.078C22.0301 120.56 21.3809 121.127 20.8943 121.567C17.9454 124.233 17.0047 125.493 16.9136 125.815C16.9136 126.287 16.5361 126.63 16.0658 126.63Z" fill="#263238"/>
<path d="M16.8615 246.035H14.7279V115.258C14.7279 115.143 14.8208 115.051 14.935 115.051H16.6544C16.7686 115.051 16.8615 115.143 16.8615 115.258V246.035Z" fill="#263238"/>
<path d="M53.1215 110.402V110.47L43.2292 111.399L41.0309 110.47V110.325C43.4507 109.942 50.5142 108.885 51.6815 109.388C52.2183 109.618 52.7125 109.967 53.113 110.308C53.1215 110.334 53.1215 110.368 53.1215 110.402Z" fill="#37474F"/>
<path opacity="0.6" d="M53.1215 110.402V110.47L43.2292 111.399L41.0309 110.47V110.325C43.4507 109.942 50.5142 108.885 51.6815 109.388C52.2183 109.618 52.7125 109.967 53.113 110.308C53.1215 110.334 53.1215 110.368 53.1215 110.402Z" fill="white"/>
<path d="M307.988 252.662H305.254V171.385C305.254 171.238 305.372 171.119 305.519 171.119H307.722C307.869 171.119 307.988 171.237 307.988 171.385V252.662Z" fill="#263238"/>
<path d="M319.63 184.224H293.515C291.849 184.224 290.5 182.874 290.5 181.209V176.34C290.5 174.675 291.85 173.325 293.515 173.325H319.63C321.296 173.325 322.646 174.676 322.646 176.34V181.209C322.646 182.874 321.296 184.224 319.63 184.224Z" fill="#37474F"/>
<path opacity="0.9" d="M319.63 184.224H293.515C291.849 184.224 290.5 182.874 290.5 181.209V176.34C290.5 174.675 291.85 173.325 293.515 173.325H319.63C321.296 173.325 322.646 174.676 322.646 176.34V181.209C322.646 182.874 321.296 184.224 319.63 184.224Z" fill="white"/>
<path d="M318.806 183.271H294.48C292.815 183.271 291.465 181.921 291.465 180.256V177.152C291.465 175.487 292.815 174.137 294.48 174.137H318.806C320.472 174.137 321.822 175.488 321.822 177.152V180.256C321.822 181.921 320.472 183.271 318.806 183.271Z" fill="#37474F"/>
<path d="M315.203 179.69L315.353 179.355C315.538 179.504 315.834 179.61 316.119 179.61C316.48 179.61 316.633 179.48 316.633 179.309C316.633 178.808 315.253 179.136 315.253 178.274C315.253 177.898 315.551 177.58 316.188 177.58C316.467 177.58 316.759 177.653 316.962 177.785L316.825 178.12C316.617 177.998 316.387 177.938 316.185 177.938C315.828 177.938 315.682 178.076 315.682 178.253C315.682 178.747 317.059 178.425 317.059 179.277C317.059 179.649 316.757 179.967 316.12 179.967C315.756 179.968 315.395 179.856 315.203 179.69Z" fill="white"/>
<path d="M317.927 177.978H317.158V177.613H319.128V177.978H318.358V179.935H317.927V177.978Z" fill="white"/>
<path d="M358 245.183H0V254.179H358V245.183Z" fill="#37474F"/>
<g opacity="0.7">
<path d="M358 245.183H0V254.179H358V245.183Z" fill="white"/>
</g>
<path d="M19.3101 245.183H18.4581V254.818H19.3101V245.183Z" fill="white"/>
<path d="M99.3861 245.183H98.534V254.818H99.3861V245.183Z" fill="white"/>
<path d="M179.462 245.183H178.61V254.818H179.462V245.183Z" fill="white"/>
<path d="M259.538 245.183H258.686V254.818H259.538V245.183Z" fill="white"/>
<path d="M339.614 245.183H338.762V254.818H339.614V245.183Z" fill="white"/>
<path d="M358 257.715H0V261.891H358V257.715Z" fill="#37474F"/>
<path opacity="0.9" d="M358 257.715H0V261.891H358V257.715Z" fill="white"/>
</g>
</svg>
