<svg width="26" height="26" viewBox="0 0 26 26" fill="none" xmlns="http://www.w3.org/2000/svg">
<g clip-path="url(#clip0_415_2463)">
<path d="M12.9453 -0.000793457C16.0595 0.00142682 19.063 1.15513 21.3779 3.2384V1.05329C21.3779 0.773728 21.489 0.505618 21.6866 0.30794C21.8843 0.110261 22.1524 -0.000793457 22.432 -0.000793457C22.7116 -0.000793457 22.9797 0.110261 23.1773 0.30794C23.375 0.505618 23.4861 0.773728 23.4861 1.05329V4.21553C23.4861 5.05421 23.1529 5.85854 22.5599 6.45157C21.9668 7.04461 21.1625 7.37777 20.3238 7.37777H17.1616C16.882 7.37777 16.6139 7.26672 16.4162 7.06904C16.2186 6.87136 16.1075 6.60325 16.1075 6.32369C16.1075 6.04413 16.2186 5.77602 16.4162 5.57834C16.6139 5.38066 16.882 5.26961 17.1616 5.26961H20.3238C20.3594 5.26434 20.3946 5.25695 20.4292 5.24747C18.7116 3.51755 16.4468 2.43738 14.0214 2.19134C11.596 1.94531 9.16046 2.54866 7.13041 3.89842C5.10035 5.24818 3.60168 7.26066 2.89019 9.59234C2.17871 11.924 2.29853 14.4304 3.2292 16.6836C4.15987 18.9367 5.84369 20.7971 7.99325 21.947C10.1428 23.097 12.6248 23.4652 15.0157 22.9889C17.4065 22.5127 19.558 21.2214 21.1027 19.3355C22.6475 17.4496 23.4899 15.086 23.4861 12.6482C23.4861 12.3686 23.5971 12.1005 23.7948 11.9028C23.9925 11.7051 24.2606 11.5941 24.5402 11.5941C24.8197 11.5941 25.0878 11.7051 25.2855 11.9028C25.4832 12.1005 25.5942 12.3686 25.5942 12.6482C25.5942 15.1499 24.8524 17.5955 23.4625 19.6756C22.0726 21.7557 20.0971 23.3769 17.7858 24.3343C15.4745 25.2917 12.9312 25.5422 10.4776 25.0541C8.02392 24.566 5.77009 23.3613 4.0011 21.5923C2.23211 19.8234 1.02741 17.5695 0.539349 15.1159C0.0512848 12.6622 0.301777 10.1189 1.25915 7.80762C2.21652 5.49633 3.83777 3.52083 5.91788 2.13094C7.99799 0.741056 10.4435 -0.000793457 12.9453 -0.000793457Z" fill="#B8B8B8"/>
<path d="M12.9447 6.32465C13.2243 6.32465 13.4924 6.4357 13.69 6.63338C13.8877 6.83106 13.9988 7.09917 13.9988 7.37873V12.6491C13.9987 12.9287 13.8876 13.1967 13.6899 13.3944L10.5277 16.5566C10.3289 16.7486 10.0626 16.8549 9.78625 16.8525C9.50987 16.8501 9.2455 16.7392 9.05006 16.5438C8.85463 16.3483 8.74377 16.084 8.74137 15.8076C8.73897 15.5312 8.84521 15.2649 9.03722 15.0661L11.8906 12.2127V7.37873C11.8906 7.09917 12.0017 6.83106 12.1994 6.63338C12.397 6.4357 12.6651 6.32465 12.9447 6.32465Z" fill="#B8B8B8"/>
</g>
<defs>
<clipPath id="clip0_415_2463">
<rect width="25.2979" height="25.2979" fill="white" transform="matrix(-1 0 0 1 25.5947 0)"/>
</clipPath>
</defs>
</svg>
