<svg width="26" height="26" viewBox="0 0 26 26" fill="none" xmlns="http://www.w3.org/2000/svg">
<path d="M24.3714 9.53693L16.3762 1.54067C15.3867 0.554041 14.0463 0 12.649 0C11.2516 0 9.91128 0.554041 8.92175 1.54067L0.92655 9.53693C0.631855 9.82973 0.398213 10.1781 0.239165 10.5619C0.0801178 10.9457 -0.00117045 11.3572 1.27327e-05 11.7726V22.1205C1.27327e-05 22.9592 0.333177 23.7635 0.926212 24.3566C1.51925 24.9496 2.32358 25.2828 3.16226 25.2828H22.1357C22.9744 25.2828 23.7787 24.9496 24.3717 24.3566C24.9648 23.7635 25.2979 22.9592 25.2979 22.1205V11.7726C25.2991 11.3572 25.2178 10.9457 25.0588 10.5619C24.8997 10.1781 24.6661 9.82973 24.3714 9.53693ZM15.8112 23.1746H9.48674V19.0279C9.48674 18.1892 9.8199 17.3849 10.4129 16.7918C11.006 16.1988 11.8103 15.8656 12.649 15.8656C13.4877 15.8656 14.292 16.1988 14.885 16.7918C15.4781 17.3849 15.8112 18.1892 15.8112 19.0279V23.1746ZM23.1898 22.1205C23.1898 22.4001 23.0787 22.6682 22.8811 22.8659C22.6834 23.0636 22.4153 23.1746 22.1357 23.1746H17.9194V19.0279C17.9194 17.6301 17.3641 16.2895 16.3757 15.3011C15.3873 14.3127 14.0468 13.7575 12.649 13.7575C11.2512 13.7575 9.91064 14.3127 8.92224 15.3011C7.93385 16.2895 7.37858 17.6301 7.37858 19.0279V23.1746H3.16226C2.8827 23.1746 2.61459 23.0636 2.41691 22.8659C2.21923 22.6682 2.10817 22.4001 2.10817 22.1205V11.7726C2.10915 11.4933 2.22011 11.2255 2.41702 11.0274L10.4122 3.0343C11.0064 2.44289 11.8106 2.11087 12.649 2.11087C13.4873 2.11087 14.2916 2.44289 14.8857 3.0343L22.8809 11.0306C23.0771 11.2279 23.188 11.4944 23.1898 11.7726V22.1205Z" fill="#B8B8B8"/>
</svg>
