<svg width="114" height="113" viewBox="0 0 114 113" fill="none" xmlns="http://www.w3.org/2000/svg">
<circle cx="57" cy="52" r="45" fill="#EDF0F5"/>
<g filter="url(#filter0_d_989_167)">
<circle cx="57" cy="52" r="39" fill="#EAEEF4"/>
</g>
<g filter="url(#filter1_d_989_167)">
<circle cx="57" cy="52" r="29" fill="url(#paint0_linear_989_167)" shape-rendering="crispEdges"/>
</g>
<path d="M46 46C46.1313 46 46.2614 45.9742 46.3827 45.9239C46.5041 45.8737 46.6143 45.8 46.7072 45.7072C46.8 45.6143 46.8737 45.5041 46.9239 45.3827C46.9742 45.2614 47 45.1313 47 45V42H50C50.2652 42 50.5196 41.8946 50.7071 41.7071C50.8946 41.5196 51 41.2652 51 41C51 40.7348 50.8946 40.4804 50.7071 40.2929C50.5196 40.1054 50.2652 40 50 40H46C45.8687 40 45.7386 40.0258 45.6173 40.0761C45.4959 40.1263 45.3857 40.2 45.2928 40.2928C45.2 40.3857 45.1263 40.4959 45.0761 40.6173C45.0258 40.7386 45 40.8687 45 41V45C45 45.1313 45.0258 45.2614 45.0761 45.3827C45.1263 45.5041 45.2 45.6143 45.2928 45.7072C45.3857 45.8 45.4959 45.8737 45.6173 45.9239C45.7386 45.9742 45.8687 46 46 46Z" fill="#0056DD"/>
<path d="M68 40H64C63.7348 40 63.4804 40.1054 63.2929 40.2929C63.1054 40.4804 63 40.7348 63 41C63 41.2652 63.1054 41.5196 63.2929 41.7071C63.4804 41.8946 63.7348 42 64 42H67V45C67 45.2652 67.1054 45.5196 67.2929 45.7071C67.4804 45.8946 67.7348 46 68 46C68.2652 46 68.5196 45.8946 68.7071 45.7071C68.8946 45.5196 69 45.2652 69 45V41C69 40.8687 68.9742 40.7386 68.9239 40.6173C68.8737 40.4959 68.8 40.3857 68.7072 40.2928C68.6143 40.2 68.5041 40.1263 68.3827 40.0761C68.2614 40.0258 68.1313 40 68 40Z" fill="#0056DD"/>
<path d="M68 58C67.8687 58 67.7386 58.0258 67.6173 58.0761C67.4959 58.1263 67.3857 58.2 67.2928 58.2928C67.2 58.3857 67.1263 58.4959 67.0761 58.6173C67.0258 58.7386 67 58.8687 67 59V62H64C63.7348 62 63.4804 62.1054 63.2929 62.2929C63.1054 62.4804 63 62.7348 63 63C63 63.2652 63.1054 63.5196 63.2929 63.7071C63.4804 63.8946 63.7348 64 64 64H68C68.1313 64 68.2614 63.9742 68.3827 63.9239C68.5041 63.8737 68.6143 63.8 68.7072 63.7072C68.8 63.6143 68.8737 63.5041 68.9239 63.3827C68.9742 63.2614 69 63.1313 69 63V59C69 58.8687 68.9742 58.7386 68.9239 58.6173C68.8737 58.4959 68.8 58.3857 68.7072 58.2928C68.6143 58.2 68.5041 58.1263 68.3827 58.0761C68.2614 58.0258 68.1313 58 68 58Z" fill="#0056DD"/>
<path d="M50 62H47V59C47 58.7348 46.8946 58.4804 46.7071 58.2929C46.5196 58.1054 46.2652 58 46 58C45.7348 58 45.4804 58.1054 45.2929 58.2929C45.1054 58.4804 45 58.7348 45 59V63C45 63.1313 45.0258 63.2614 45.0761 63.3827C45.1263 63.5041 45.2 63.6143 45.2928 63.7072C45.3857 63.8 45.4959 63.8737 45.6173 63.9239C45.7386 63.9742 45.8687 64 46 64H50C50.2652 64 50.5196 63.8946 50.7071 63.7071C50.8946 63.5196 51 63.2652 51 63C51 62.7348 50.8946 62.4804 50.7071 62.2929C50.5196 62.1054 50.2652 62 50 62Z" fill="#0056DD"/>
<path d="M64 59C64.2652 59 64.5196 58.8946 64.7071 58.7071C64.8946 58.5196 65 58.2652 65 58V55H49V58C49 58.2652 49.1054 58.5196 49.2929 58.7071C49.4804 58.8946 49.7348 59 50 59H64Z" fill="#0056DD"/>
<path d="M68 51H65V46C65 45.7348 64.8946 45.4804 64.7071 45.2929C64.5196 45.1054 64.2652 45 64 45H50C49.7348 45 49.4804 45.1054 49.2929 45.2929C49.1054 45.4804 49 45.7348 49 46V51H46C45.7348 51 45.4804 51.1054 45.2929 51.2929C45.1054 51.4804 45 51.7348 45 52C45 52.2652 45.1054 52.5196 45.2929 52.7071C45.4804 52.8946 45.7348 53 46 53H68C68.2652 53 68.5196 52.8946 68.7071 52.7071C68.8946 52.5196 69 52.2652 69 52C69 51.7348 68.8946 51.4804 68.7071 51.2929C68.5196 51.1054 68.2652 51 68 51Z" fill="#0056DD"/>
<defs>
<filter id="filter0_d_989_167" x="0.745455" y="0.472727" width="112.509" height="112.509" filterUnits="userSpaceOnUse" color-interpolation-filters="sRGB">
<feFlood flood-opacity="0" result="BackgroundImageFix"/>
<feColorMatrix in="SourceAlpha" type="matrix" values="0 0 0 0 0 0 0 0 0 0 0 0 0 0 0 0 0 0 127 0" result="hardAlpha"/>
<feOffset dy="4.72727"/>
<feGaussianBlur stdDeviation="8.62727"/>
<feComposite in2="hardAlpha" operator="out"/>
<feColorMatrix type="matrix" values="0 0 0 0 0 0 0 0 0 0 0 0 0 0 0 0 0 0 0.1 0"/>
<feBlend mode="normal" in2="BackgroundImageFix" result="effect1_dropShadow_989_167"/>
<feBlend mode="normal" in="SourceGraphic" in2="effect1_dropShadow_989_167" result="shape"/>
</filter>
<filter id="filter1_d_989_167" x="22.9565" y="23" width="68.087" height="68.087" filterUnits="userSpaceOnUse" color-interpolation-filters="sRGB">
<feFlood flood-opacity="0" result="BackgroundImageFix"/>
<feColorMatrix in="SourceAlpha" type="matrix" values="0 0 0 0 0 0 0 0 0 0 0 0 0 0 0 0 0 0 127 0" result="hardAlpha"/>
<feOffset dy="5.04348"/>
<feGaussianBlur stdDeviation="2.52174"/>
<feComposite in2="hardAlpha" operator="out"/>
<feColorMatrix type="matrix" values="0 0 0 0 0 0 0 0 0 0 0 0 0 0 0 0 0 0 0.1 0"/>
<feBlend mode="normal" in2="BackgroundImageFix" result="effect1_dropShadow_989_167"/>
<feBlend mode="normal" in="SourceGraphic" in2="effect1_dropShadow_989_167" result="shape"/>
</filter>
<linearGradient id="paint0_linear_989_167" x1="57" y1="23" x2="57" y2="81" gradientUnits="userSpaceOnUse">
<stop stop-color="white"/>
<stop offset="1" stop-color="white" stop-opacity="0"/>
</linearGradient>
</defs>
</svg>
