<svg width="24" height="23" viewBox="0 0 24 23" fill="none" xmlns="http://www.w3.org/2000/svg">
<g clip-path="url(#clip0_415_2469)">
<path d="M4.11701 22.9258C4.08644 22.9258 4.05683 22.9258 4.02626 22.9258C3.04998 22.9001 2.15108 22.4845 1.49577 21.7566C0.283546 20.4106 0.390535 18.1419 1.72886 16.8036L7.33432 11.1991C7.57601 10.9564 7.66293 10.5963 7.56454 10.2352C7.22256 8.97618 7.18913 7.67893 7.46711 6.37978C8.14343 3.21309 10.7446 0.701712 13.9409 0.130466C14.9019 -0.0414811 15.8658 -0.0453021 16.8086 0.123779C17.5069 0.247008 18.0495 0.720817 18.2606 1.3895C18.5004 2.15275 18.2577 2.99529 17.6091 3.64296L15.4626 5.76077C14.8341 6.38933 14.7385 7.37516 15.2506 8.00086C15.5448 8.36195 15.9594 8.5721 16.4179 8.59503C16.8688 8.61414 17.312 8.44696 17.632 8.12791L20.0966 5.69199C20.6115 5.17711 21.369 4.98988 22.074 5.21341C22.7646 5.43025 23.2719 6.00436 23.397 6.7103C23.5642 7.65314 23.5613 8.61891 23.3903 9.57895C22.8172 12.7762 20.3058 15.3774 17.1391 16.0527C15.8371 16.3307 14.5399 16.2973 13.2837 15.9544C12.9236 15.855 12.5634 15.9429 12.3208 16.1846L6.61215 21.8923C5.95302 22.5514 5.04839 22.9258 4.11701 22.9258ZM15.5056 1.90343C15.1025 1.90343 14.6898 1.93686 14.2772 2.01042C11.8374 2.44697 9.85048 4.36323 9.33464 6.77812C9.12066 7.77637 9.1455 8.7708 9.40724 9.73275C9.68427 10.7472 9.40724 11.8257 8.68506 12.5489L3.07959 18.1534C2.45867 18.7743 2.38034 19.8824 2.91624 20.4775C3.21715 20.8119 3.62982 21.0029 4.07689 21.0144C4.51726 21.0325 4.94522 20.8587 5.26236 20.5425L10.97 14.8348C11.6913 14.1136 12.7707 13.8346 13.7862 14.1117C14.7452 14.3734 15.7397 14.3982 16.7408 14.1843C19.1557 13.6694 21.0719 11.6834 21.5094 9.24174C21.6413 8.50428 21.6432 7.76395 21.5152 7.04369V7.037L18.979 9.48151C18.2826 10.1779 17.313 10.5667 16.3224 10.5017C15.3327 10.4521 14.4033 9.98111 13.7728 9.20926C12.6465 7.83464 12.7975 5.72352 14.1176 4.4043L16.2641 2.28649C16.4351 2.11454 16.4466 1.98654 16.4399 1.96074C16.139 1.92349 15.8256 1.90152 15.5075 1.90152L15.5056 1.90343Z" fill="#B8B8B8"/>
</g>
<defs>
<clipPath id="clip0_415_2469">
<rect width="22.9263" height="22.9263" fill="white" transform="translate(0.595703)"/>
</clipPath>
</defs>
</svg>
