<svg width="24" height="26" viewBox="0 0 24 26" fill="none" xmlns="http://www.w3.org/2000/svg">
<path opacity="0.2" d="M11.9996 19.701C16.8098 19.701 21.0161 21.7697 23.3042 24.8556L20.8849 26C19.0227 23.7931 15.7394 22.3277 11.9996 22.3277C8.2598 22.3277 4.97637 23.7931 3.11432 26L0.696045 24.8545C2.98424 21.7692 7.19002 19.701 11.9996 19.701ZM11.9996 0C15.6264 0 18.5666 2.94014 18.5666 6.56698V10.5072C18.5666 14.0386 15.7792 16.9189 12.2845 17.0681L11.9996 17.0742C8.37274 17.0742 5.4326 14.134 5.4326 10.5072V6.56698C5.4326 3.03559 8.22004 0.155217 11.7147 0.00606799L11.9996 0ZM11.9996 2.62679C9.90121 2.62679 8.18593 4.26712 8.06608 6.33547L8.05939 6.56698V10.5072C8.05939 12.6833 9.82346 14.4474 11.9996 14.4474C14.098 14.4474 15.8132 12.8071 15.9331 10.7387L15.9398 10.5072V6.56698C15.9398 4.39088 14.1757 2.62679 11.9996 2.62679Z" fill="black"/>
</svg>
