<svg width="28" height="27" viewBox="0 0 28 27" fill="none" xmlns="http://www.w3.org/2000/svg">
<g clip-path="url(#clip0_779_370)">
<path d="M25.25 11.2491V7.22162C25.2499 6.95848 25.2349 6.69555 25.205 6.43412C25.0547 5.05794 24.4802 3.76255 23.5611 2.72733C22.642 1.69212 21.4237 0.968298 20.075 0.656117C16.0719 -0.215776 11.9281 -0.215776 7.925 0.656117C6.57637 0.96845 5.3582 1.69231 4.43911 2.7275C3.52001 3.76269 2.94547 5.058 2.795 6.43412C2.76508 6.69555 2.75006 6.95848 2.75 7.22162V11.2491C2.15326 11.2491 1.58097 11.4862 1.15901 11.9081C0.737053 12.3301 0.5 12.9024 0.5 13.4991L0.5 14.6241C0.5 15.2209 0.737053 15.7932 1.15901 16.2151C1.58097 16.6371 2.15326 16.8741 2.75 16.8741V19.1241C2.74948 19.9975 2.95256 20.8589 3.34313 21.6401C3.73371 22.4212 4.30101 23.1005 5 23.6241V24.1866C4.9993 24.8841 5.25778 25.5569 5.72527 26.0746C6.19276 26.5922 6.8359 26.9176 7.52985 26.9877C8.22379 27.0578 8.91902 26.8675 9.48058 26.4539C10.0421 26.0402 10.43 25.4326 10.5687 24.7491H17.4312C17.57 25.4326 17.9579 26.0402 18.5194 26.4539C19.081 26.8675 19.7762 27.0578 20.4702 26.9877C21.1641 26.9176 21.8072 26.5922 22.2747 26.0746C22.7422 25.5569 23.0007 24.8841 23 24.1866V23.6241C23.699 23.1005 24.2663 22.4212 24.6569 21.6401C25.0474 20.8589 25.2505 19.9975 25.25 19.1241V16.8741C25.8467 16.8741 26.419 16.6371 26.841 16.2151C27.2629 15.7932 27.5 15.2209 27.5 14.6241V13.4991C27.5 12.9024 27.2629 12.3301 26.841 11.9081C26.419 11.4862 25.8467 11.2491 25.25 11.2491ZM5 14.6241V7.87412H23V14.6241H5ZM8.4335 2.84762C12.1031 2.04935 15.9014 2.04935 19.571 2.84762C20.2839 3.01376 20.9444 3.35447 21.4931 3.83911C22.0417 4.32375 22.4614 4.93713 22.7143 5.62412H18.5C18.5 5.32575 18.3815 5.0396 18.1705 4.82862C17.9595 4.61764 17.6734 4.49912 17.375 4.49912H10.625C10.3266 4.49912 10.0405 4.61764 9.8295 4.82862C9.61853 5.0396 9.5 5.32575 9.5 5.62412H5.28575C5.53904 4.93659 5.95935 4.32285 6.50884 3.83818C7.05832 3.3535 7.71973 3.01309 8.4335 2.84762ZM19.625 22.4991H8.375C7.47989 22.4991 6.62145 22.1435 5.98851 21.5106C5.35558 20.8777 5 20.0192 5 19.1241V16.8741H7.25V17.9991C7.25 18.2975 7.36853 18.5836 7.5795 18.7946C7.79048 19.0056 8.07663 19.1241 8.375 19.1241C8.67337 19.1241 8.95952 19.0056 9.1705 18.7946C9.38147 18.5836 9.5 18.2975 9.5 17.9991V16.8741H18.5V17.9991C18.5 18.2975 18.6185 18.5836 18.8295 18.7946C19.0405 19.0056 19.3266 19.1241 19.625 19.1241C19.9234 19.1241 20.2095 19.0056 20.4205 18.7946C20.6315 18.5836 20.75 18.2975 20.75 17.9991V16.8741H23V19.1241C23 20.0192 22.6444 20.8777 22.0115 21.5106C21.3786 22.1435 20.5201 22.4991 19.625 22.4991Z" fill="#B8B8B8"/>
</g>
<defs>
<clipPath id="clip0_779_370">
<rect width="27" height="27" fill="white" transform="translate(0.5)"/>
</clipPath>
</defs>
</svg>
