<svg width="53" height="62" viewBox="0 0 53 62" fill="none" xmlns="http://www.w3.org/2000/svg">
<g filter="url(#filter0_d_448_16551)">
<path d="M52.3853 10.7145L33.5349 0V21.4276L52.3853 10.7145Z" fill="url(#paint0_linear_448_16551)"/>
</g>
<path d="M17.099 18.9366C16.4266 19.4295 16.084 19.6437 15.852 20.3919C15.7487 20.724 15.7777 21.2937 15.9354 21.6044C16.4809 22.6847 17.4996 23.5989 18.346 24.456C18.9732 25.0917 19.6148 25.7167 20.2855 26.3095L26.9701 32.2181L28.7971 33.8056C28.7971 33.8056 29.7215 37.0215 29.6363 38.65C29.5511 40.2785 27.4395 43.0605 27.1332 43.7122C26.8269 44.364 24.0501 45.7479 22.8538 46.2889C21.6594 46.8299 16.6531 47.7049 15.7976 47.6406C14.9421 47.5763 15.1687 47.5603 15.1687 47.5603C16.3794 47.2996 17.757 46.6817 18.0143 45.3443C18.0832 44.9872 18.0234 44.6158 17.9056 44.2711C17.4343 42.8998 16.0949 41.8105 15.0617 40.8392C14.1536 39.9838 13.2238 39.1517 12.2795 38.3357C12.2795 38.3357 5.53141 32.4985 5.5296 32.4985C4.7194 31.7967 4.45114 30.7611 4.27895 29.7575C3.96901 27.9433 4.03426 26.0238 4.82634 24.3328C5.54592 22.7989 6.86544 21.5383 8.31003 20.6598C8.39885 20.6062 8.48766 20.5544 8.57647 20.5026C10.128 19.6187 11.8662 19.092 13.6244 18.7848C14.5017 18.6313 15.3789 18.5706 16.2616 18.4741C16.6785 18.4277 17.4651 18.4884 17.9908 18.4902" fill="url(#paint1_linear_448_16551)"/>
<path fill-rule="evenodd" clip-rule="evenodd" d="M0 51.1674V48.2389C1.23802 48.1827 2.48116 48.1374 3.72667 48.0921C8.41303 47.9217 13.1331 47.75 17.7411 46.9854C20.8695 46.4658 24.3279 45.6819 26.6896 43.4498C27.9801 42.2303 28.8266 40.5911 29.1438 38.8644C29.2996 38.0162 29.3305 37.1466 29.2217 36.2913C29.2178 36.2604 29.2117 36.2087 29.2036 36.1409C29.1365 35.5761 28.9365 33.8917 28.7958 33.8057C30.5521 34.877 31.7556 37.3537 32.4172 39.2C33.8129 43.0963 34.0322 47.705 32.1834 51.4959C30.5902 54.7636 27.5596 57.1885 24.2264 58.7259C16.6826 62.2043 8.13829 62.1007 0 61.9383V57.3559L0.00107457 59.6003C1.11935 59.5997 2.19161 59.155 2.98197 58.3639C3.77233 57.5728 4.21605 56.5001 4.21552 55.3818C4.21498 54.2635 3.77024 53.1913 2.97912 52.4009C2.1887 51.6112 1.11721 51.1676 0 51.1674Z" fill="url(#paint2_linear_448_16551)"/>
<path d="M33.5198 3.7229C27.745 3.53541 21.9685 3.37471 16.3007 4.70679C10.9011 5.97637 5.03757 8.60839 2.11033 13.476C1.74057 14.0903 1.41975 14.7349 1.15875 15.4009C0.198104 17.849 -0.251405 21.0132 0.216229 23.6148C0.223479 23.6577 0.232542 23.7023 0.241604 23.7452C0.783553 26.4593 2.16108 29.0485 3.12172 30.0359C4.07693 31.018 5.21158 32.1716 5.22064 32.1805C4.87807 31.8359 4.80919 31.168 4.71313 30.7163C4.58806 30.1181 4.52644 29.5056 4.52825 28.8949C4.53188 27.6914 4.77838 26.4879 5.26233 25.3808C6.60904 22.3113 9.58523 20.5525 12.7191 19.615C13.1668 19.4811 13.6181 19.3614 14.0731 19.249C17.3103 18.4561 20.6381 18.0865 23.9659 17.9329C25.637 17.8562 27.3118 17.8329 28.9848 17.8383C29.8222 17.8401 30.6596 17.8508 31.4952 17.8633C31.8939 17.8704 33.5198 17.8865 33.5198 17.8865C33.5198 17.8865 33.5198 16.9205 33.5198 16.6937V9.54227C33.5198 7.65665 33.5198 5.76924 33.5198 3.88361" fill="url(#paint3_linear_448_16551)"/>
<defs>
<filter id="filter0_d_448_16551" x="33.5349" y="0" width="18.8503" height="21.4276" filterUnits="userSpaceOnUse" color-interpolation-filters="sRGB">
<feFlood flood-opacity="0" result="BackgroundImageFix"/>
<feColorMatrix in="SourceAlpha" type="matrix" values="0 0 0 0 0 0 0 0 0 0 0 0 0 0 0 0 0 0 127 0" result="hardAlpha"/>
<feOffset/>
<feComposite in2="hardAlpha" operator="out"/>
<feColorMatrix type="matrix" values="0 0 0 0 0 0 0 0 0 0 0 0 0 0 0 0 0 0 0.25 0"/>
<feBlend mode="normal" in2="BackgroundImageFix" result="effect1_dropShadow_448_16551"/>
<feBlend mode="normal" in="SourceGraphic" in2="effect1_dropShadow_448_16551" result="shape"/>
</filter>
<linearGradient id="paint0_linear_448_16551" x1="28.2507" y1="9.84028" x2="53.1134" y2="11.0277" gradientUnits="userSpaceOnUse">
<stop offset="0.0718418" stop-color="#4D92FF"/>
<stop offset="0.502552" stop-color="#0056DD"/>
</linearGradient>
<linearGradient id="paint1_linear_448_16551" x1="13.9138" y1="22.9123" x2="17.8972" y2="46.9867" gradientUnits="userSpaceOnUse">
<stop stop-color="#002E77"/>
<stop offset="0.455648" stop-color="#0A51BF"/>
<stop offset="1" stop-color="#002E77"/>
</linearGradient>
<linearGradient id="paint2_linear_448_16551" x1="32.046" y1="36.4066" x2="15.0508" y2="60.2301" gradientUnits="userSpaceOnUse">
<stop stop-color="#0055DC"/>
<stop offset="0.449211" stop-color="#0967FB"/>
<stop offset="1" stop-color="#005DF0"/>
</linearGradient>
<linearGradient id="paint3_linear_448_16551" x1="-7.59149" y1="7.73136" x2="30.9698" y2="20.6632" gradientUnits="userSpaceOnUse">
<stop offset="0.126513" stop-color="#0056DD"/>
<stop offset="0.275117" stop-color="#0056DD"/>
<stop offset="0.587548" stop-color="#0A69FF"/>
<stop offset="1" stop-color="#0056DD"/>
</linearGradient>
</defs>
</svg>
